<svg width="113" height="23" viewBox="0 0 113 23" fill="none" xmlns="http://www.w3.org/2000/svg">
<path d="M2.93255e-05 0.479979V21.48H5.25003V0.479979H2.93255e-05ZM12.39 0.479979L3.78003 10.47L12.63 21.48H18.78L9.81003 10.32L18.33 0.479979H12.39ZM20.8266 0.479979V14.58C20.8266 15.9 21.0366 17.05 21.4566 18.03C21.8966 19.01 22.4966 19.82 23.2566 20.46C24.0366 21.08 24.9366 21.55 25.9566 21.87C26.9766 22.19 28.0766 22.35 29.2566 22.35C30.4366 22.35 31.5366 22.19 32.5566 21.87C33.5966 21.55 34.4966 21.08 35.2566 20.46C36.0366 19.82 36.6366 19.01 37.0566 18.03C37.4966 17.05 37.7166 15.9 37.7166 14.58V0.479979H32.6466V14.22C32.6466 15.28 32.3666 16.14 31.8066 16.8C31.2466 17.46 30.3966 17.79 29.2566 17.79C28.1366 17.79 27.2966 17.46 26.7366 16.8C26.1766 16.14 25.8966 15.28 25.8966 14.22V0.479979H20.8266ZM52.4217 13.89H58.0017C57.8217 14.43 57.5717 14.94 57.2517 15.42C56.9517 15.88 56.5817 16.29 56.1417 16.65C55.7017 16.99 55.1717 17.26 54.5517 17.46C53.9317 17.64 53.2417 17.73 52.4817 17.73C51.2417 17.73 50.1417 17.46 49.1817 16.92C48.2417 16.36 47.4917 15.58 46.9317 14.58C46.3917 13.56 46.1217 12.36 46.1217 10.98C46.1217 9.57998 46.4017 8.39998 46.9617 7.43998C47.5417 6.45998 48.3117 5.70998 49.2717 5.18998C50.2317 4.66998 51.3017 4.40998 52.4817 4.40998C53.7017 4.40998 54.7117 4.68998 55.5117 5.24998C56.3317 5.78998 56.9817 6.47998 57.4617 7.31998L61.9617 4.97998C61.3017 3.99998 60.5117 3.13998 59.5917 2.39998C58.6917 1.63998 57.6517 1.04998 56.4717 0.629979C55.2917 0.20998 53.9617 -2.01464e-05 52.4817 -2.01464e-05C50.8217 -2.01464e-05 49.2817 0.259979 47.8617 0.779979C46.4417 1.29998 45.2017 2.03998 44.1417 2.99998C43.0817 3.95998 42.2617 5.11998 41.6817 6.47998C41.1017 7.81998 40.8117 9.31998 40.8117 10.98C40.8117 12.64 41.0917 14.16 41.6517 15.54C42.2317 16.9 43.0317 18.08 44.0517 19.08C45.0717 20.06 46.2817 20.82 47.6817 21.36C49.0817 21.88 50.6217 22.14 52.3017 22.14C54.0817 22.14 55.6617 21.83 57.0417 21.21C58.4217 20.57 59.5717 19.69 60.4917 18.57C61.4117 17.45 62.0917 16.16 62.5317 14.7C62.9717 13.24 63.1417 11.67 63.0417 9.98998H52.4217V13.89ZM70.6153 10.98C70.6153 9.73998 70.8553 8.64998 71.3353 7.70998C71.8353 6.74998 72.5253 5.99998 73.4053 5.45998C74.3053 4.91998 75.3553 4.64998 76.5553 4.64998C77.7753 4.64998 78.8253 4.91998 79.7053 5.45998C80.5853 5.99998 81.2653 6.74998 81.7453 7.70998C82.2253 8.64998 82.4653 9.73998 82.4653 10.98C82.4653 12.22 82.2153 13.32 81.7153 14.28C81.2353 15.22 80.5453 15.96 79.6453 16.5C78.7653 17.04 77.7353 17.31 76.5553 17.31C75.3553 17.31 74.3053 17.04 73.4053 16.5C72.5253 15.96 71.8353 15.22 71.3353 14.28C70.8553 13.32 70.6153 12.22 70.6153 10.98ZM65.2453 10.98C65.2453 12.6 65.5153 14.09 66.0553 15.45C66.6153 16.81 67.3953 17.99 68.3953 18.99C69.4153 19.99 70.6153 20.77 71.9953 21.33C73.3753 21.87 74.8953 22.14 76.5553 22.14C78.1953 22.14 79.7053 21.87 81.0853 21.33C82.4653 20.77 83.6553 19.99 84.6553 18.99C85.6753 17.99 86.4553 16.81 86.9953 15.45C87.5553 14.09 87.8353 12.6 87.8353 10.98C87.8353 9.35998 87.5553 7.87998 86.9953 6.53998C86.4353 5.19998 85.6453 4.03998 84.6253 3.05998C83.6053 2.07998 82.4053 1.32998 81.0253 0.80998C79.6653 0.26998 78.1753 -2.01464e-05 76.5553 -2.01464e-05C74.9553 -2.01464e-05 73.4653 0.26998 72.0853 0.80998C70.7053 1.32998 69.5053 2.07998 68.4853 3.05998C67.4653 4.03998 66.6653 5.19998 66.0853 6.53998C65.5253 7.87998 65.2453 9.35998 65.2453 10.98ZM95.254 10.98C95.254 9.73998 95.494 8.64998 95.974 7.70998C96.474 6.74998 97.164 5.99998 98.044 5.45998C98.944 4.91998 99.994 4.64998 101.194 4.64998C102.414 4.64998 103.464 4.91998 104.344 5.45998C105.224 5.99998 105.904 6.74998 106.384 7.70998C106.864 8.64998 107.104 9.73998 107.104 10.98C107.104 12.22 106.854 13.32 106.354 14.28C105.874 15.22 105.184 15.96 104.284 16.5C103.404 17.04 102.374 17.31 101.194 17.31C99.994 17.31 98.944 17.04 98.044 16.5C97.164 15.96 96.474 15.22 95.974 14.28C95.494 13.32 95.254 12.22 95.254 10.98ZM89.884 10.98C89.884 12.6 90.154 14.09 90.694 15.45C91.254 16.81 92.034 17.99 93.034 18.99C94.054 19.99 95.254 20.77 96.634 21.33C98.014 21.87 99.534 22.14 101.194 22.14C102.834 22.14 104.344 21.87 105.724 21.33C107.104 20.77 108.294 19.99 109.294 18.99C110.314 17.99 111.094 16.81 111.634 15.45C112.194 14.09 112.474 12.6 112.474 10.98C112.474 9.35998 112.194 7.87998 111.634 6.53998C111.074 5.19998 110.284 4.03998 109.264 3.05998C108.244 2.07998 107.044 1.32998 105.664 0.80998C104.304 0.26998 102.814 -2.01464e-05 101.194 -2.01464e-05C99.594 -2.01464e-05 98.104 0.26998 96.724 0.80998C95.344 1.32998 94.144 2.07998 93.124 3.05998C92.104 4.03998 91.304 5.19998 90.724 6.53998C90.164 7.87998 89.884 9.35998 89.884 10.98Z" fill="#282739"/>
</svg>
