<svg width="0" height="0" class="hidden">
  <symbol viewBox="0 0 12 12" xmlns="http://www.w3.org/2000/svg" id="viber">
    <path d="M6.40796 6.77975C6.27072 6.91708 6.04815 6.91708 5.91082 6.77975L4.31323 5.18216C4.24731 5.11624 4.21023 5.02679 4.21023 4.93359C4.21023 4.8403 4.24731 4.75095 4.31323 4.68494L4.59723 4.40103L3.76309 3.56689L3.07974 4.25024C2.84976 4.48022 2.84985 4.8544 3.07974 5.08438L6.0086 8.01343C6.11929 8.12411 6.26742 8.185 6.42572 8.185C6.58401 8.185 6.73214 8.12402 6.84283 8.01334L7.52618 7.33008L6.69204 6.49585L6.40796 6.77975Z" />
    <path d="M11.4957 4.23541C11.4957 3.10831 11.0541 2.04593 10.2519 1.24384C9.4498 0.441742 8.38742 0 7.26041 0H4.75085C4.75085 0 4.75085 0 4.75076 0C3.62384 0 2.56146 0.441742 1.75946 1.24374C0.957367 2.04584 0.515625 3.10831 0.515625 4.23532V6.20792C0.515625 7.08069 0.78186 7.92032 1.28558 8.63599C1.72998 9.26733 2.32764 9.76044 3.02444 10.0732V11.2062C3.02444 11.7921 3.35248 11.9999 3.63336 12C3.83405 12 4.03482 11.9009 4.23019 11.7057L5.49243 10.4432H7.2605C8.38751 10.4432 9.44989 10.0015 10.252 9.1994C11.0541 8.39731 11.4958 7.33493 11.4958 6.20792L11.4957 4.23541ZM8.27197 7.57864L7.33997 8.51056C7.09644 8.75409 6.77179 8.88803 6.42572 8.88803C6.07965 8.88803 5.755 8.754 5.51147 8.51056L2.58252 5.58151C2.07852 5.07733 2.07852 4.25711 2.58252 3.75302L3.51453 2.82111C3.58044 2.7551 3.6698 2.71811 3.76309 2.71811C3.85629 2.71811 3.94574 2.7551 4.01166 2.82111L5.34302 4.15247C5.40894 4.21838 5.44592 4.30783 5.44592 4.40103C5.44592 4.49423 5.40894 4.58368 5.34293 4.6496L5.05902 4.9335L6.15948 6.03397L6.44348 5.74997C6.58081 5.61273 6.80338 5.61273 6.94061 5.75006L8.27197 7.08142C8.33798 7.14734 8.37497 7.23679 8.37497 7.32999C8.37497 7.42328 8.33798 7.51273 8.27197 7.57864ZM5.73944 3.41299C5.73944 3.2189 5.89682 3.06143 6.091 3.06143C7.30911 3.06143 8.30017 4.0524 8.30017 5.27042C8.30017 5.4646 8.14279 5.62198 7.94861 5.62198C7.75452 5.62198 7.59705 5.4646 7.59705 5.27042C7.59705 4.44012 6.92148 3.76456 6.091 3.76456C5.89682 3.76456 5.73944 3.60718 5.73944 3.41299ZM9.45474 5.62216C9.26056 5.62216 9.10318 5.46469 9.10318 5.2706C9.10327 4.46594 8.78989 3.70953 8.22098 3.14053C7.65198 2.57162 6.89557 2.25824 6.09091 2.25824C5.89682 2.25824 5.73935 2.10086 5.73935 1.90668C5.73935 1.71259 5.89682 1.55511 6.09091 1.55511C7.08334 1.55511 8.01636 1.94165 8.71811 2.6434C9.41995 3.34515 9.8064 4.27817 9.8063 5.2706C9.8063 5.46469 9.64893 5.62216 9.45474 5.62216Z" />
  </symbol>
  <symbol viewBox="0 0 12 12" xmlns="http://www.w3.org/2000/svg" id="whatsapp">
      <path d="M5.99685 0.00378706C2.68509 0.00448977 0.0009558 2.68978 0.00165851 6.00153C0.00189275 7.14828 0.330971 8.2709 0.949824 9.23633L0.0168839 11.6569C-0.0327977 11.7856 0.0312894 11.9303 0.160026 11.98C0.188813 11.9911 0.219381 11.9968 0.25023 11.9967C0.278854 11.9969 0.307267 11.992 0.334181 11.9822L2.83271 11.0902C5.64383 12.841 9.342 11.9815 11.0928 9.17033C12.8436 6.35918 11.984 2.66104 9.17286 0.910259C8.21994 0.31675 7.11952 0.00268615 5.99685 0.00378706Z" />
      <path d="M8.85557 7.02445C8.85557 7.02445 8.24344 6.72462 7.86016 6.52475C7.42642 6.30138 6.91672 6.71963 6.67686 6.9575C6.30356 6.8141 5.96261 6.59767 5.67396 6.32087C5.39711 6.03227 5.18068 5.69131 5.03732 5.31796C5.27519 5.07761 5.69244 4.56841 5.47008 4.13467C5.27269 3.7509 4.97038 3.13877 4.97038 3.13877C4.92796 3.05458 4.84178 3.00144 4.7475 3.00134H4.24781C3.52008 3.12703 2.99097 3.762 2.99855 4.50046C2.99855 5.28498 3.93749 6.79211 4.57063 7.42572C5.20377 8.05933 6.71087 8.99779 7.49589 8.99779C8.23435 9.00538 8.86932 8.47624 8.99501 7.74854V7.24884C8.99508 7.15356 8.94102 7.06654 8.85557 7.02445Z" fill="#F7F7F7" />
  </symbol>
  <symbol viewBox="0 0 12 12" xmlns="http://www.w3.org/2000/svg" id="telegram">
    <path d="M4.70847 7.59058L4.50997 10.3826C4.79397 10.3826 4.91697 10.2606 5.06447 10.1141L6.39597 8.84158L9.15497 10.8621C9.66097 11.1441 10.0175 10.9956 10.154 10.3966L11.965 1.91058L11.9655 1.91008C12.126 1.16208 11.695 0.869581 11.202 1.05308L0.556967 5.12858C-0.169533 5.41058 -0.158533 5.81558 0.433467 5.99908L3.15497 6.84558L9.47647 2.89008C9.77397 2.69308 10.0445 2.80208 9.82197 2.99908L4.70847 7.59058Z" />
  </symbol>
  <symbol viewBox="0 0 16 16" fill="none" xmlns="http://www.w3.org/2000/svg" id="search">
    <path d="M15.9519 14.8499L10.758 9.65596C11.564 8.61396 11.9999 7.33997 11.9999 5.99997C11.9999 4.39598 11.374 2.89199 10.242 1.75799C9.10996 0.623997 7.60197 0 5.99997 0C4.39798 0 2.88999 0.625997 1.75799 1.75799C0.623997 2.88999 0 4.39598 0 5.99997C0 7.60197 0.625997 9.10996 1.75799 10.242C2.88999 11.376 4.39598 11.9999 5.99997 11.9999C7.33997 11.9999 8.61196 11.564 9.65396 10.76L14.8479 15.9519C14.8632 15.9672 14.8812 15.9793 14.9012 15.9875C14.9211 15.9958 14.9424 16 14.9639 16C14.9855 16 15.0068 15.9958 15.0267 15.9875C15.0466 15.9793 15.0647 15.9672 15.0799 15.9519L15.9519 15.0819C15.9672 15.0667 15.9793 15.0486 15.9875 15.0287C15.9958 15.0088 16 14.9875 16 14.9659C16 14.9444 15.9958 14.9231 15.9875 14.9032C15.9793 14.8833 15.9672 14.8652 15.9519 14.8499ZM9.16796 9.16796C8.31996 10.014 7.19597 10.48 5.99997 10.48C4.80398 10.48 3.67998 10.014 2.83199 9.16796C1.98599 8.31996 1.51999 7.19597 1.51999 5.99997C1.51999 4.80398 1.98599 3.67798 2.83199 2.83199C3.67998 1.98599 4.80398 1.51999 5.99997 1.51999C7.19597 1.51999 8.32196 1.98399 9.16796 2.83199C10.014 3.67998 10.48 4.80398 10.48 5.99997C10.48 7.19597 10.014 8.32196 9.16796 9.16796Z" fill="white" />
  </symbol>
  <symbol viewBox="0 0 20 20" fill="none" xmlns="http://www.w3.org/2000/svg" id="balance">
    <mask id="path-1-inside-1_1_15994" fill="white">
      <path d="M19.4141 11.2639H18.7766L16.7349 6.32553C17.0208 6.28663 17.2413 6.04217 17.2413 5.74561C17.2413 5.42202 16.979 5.15967 16.6554 5.15967H11.6177C11.3769 4.49088 10.7363 4.01135 9.98559 4.01135C9.23488 4.01135 8.59422 4.49092 8.3534 5.15967H3.34465C3.02105 5.15967 2.75871 5.42202 2.75871 5.74561C2.75871 6.04217 2.97926 6.28663 3.26512 6.32553L1.22344 11.2639H0.585938C0.262344 11.2639 0 11.5263 0 11.8499C0 14.132 1.85668 15.9887 4.13883 15.9887C6.42098 15.9887 8.27766 14.132 8.27766 11.8499C8.27766 11.5263 8.01531 11.2639 7.69172 11.2639H7.05418L5.01504 6.33155H8.3534C8.59422 7.00034 9.23484 7.47987 9.98559 7.47987C10.7363 7.47987 11.3769 7.00034 11.6177 6.33155H14.985L12.9459 11.2639H12.3083C11.9847 11.2639 11.7224 11.5263 11.7224 11.8499C11.7224 14.132 13.5791 15.9887 15.8612 15.9887C18.1434 15.9887 20 14.132 20 11.8499C20 11.5263 19.7377 11.2639 19.4141 11.2639ZM4.13883 14.8168C2.70332 14.8168 1.5027 13.7922 1.22996 12.4358H7.0477C6.77496 13.7922 5.57434 14.8168 4.13883 14.8168ZM5.78613 11.2639H2.49152L4.13883 7.2794L5.78613 11.2639ZM9.98555 6.30799C9.67543 6.30799 9.42316 6.05573 9.42316 5.74561C9.42316 5.43549 9.67543 5.18323 9.98555 5.18323C10.2956 5.18323 10.5479 5.43549 10.5479 5.74561C10.5479 6.05573 10.2957 6.30799 9.98555 6.30799ZM15.8612 7.2794L17.5085 11.2639H14.2139L15.8612 7.2794ZM15.8612 14.8168C14.4257 14.8168 13.225 13.7922 12.9523 12.4358H18.77C18.4973 13.7922 17.2966 14.8168 15.8612 14.8168Z" />
    </mask>
    <path d="M19.4141 11.2639H18.7766L16.7349 6.32553C17.0208 6.28663 17.2413 6.04217 17.2413 5.74561C17.2413 5.42202 16.979 5.15967 16.6554 5.15967H11.6177C11.3769 4.49088 10.7363 4.01135 9.98559 4.01135C9.23488 4.01135 8.59422 4.49092 8.3534 5.15967H3.34465C3.02105 5.15967 2.75871 5.42202 2.75871 5.74561C2.75871 6.04217 2.97926 6.28663 3.26512 6.32553L1.22344 11.2639H0.585938C0.262344 11.2639 0 11.5263 0 11.8499C0 14.132 1.85668 15.9887 4.13883 15.9887C6.42098 15.9887 8.27766 14.132 8.27766 11.8499C8.27766 11.5263 8.01531 11.2639 7.69172 11.2639H7.05418L5.01504 6.33155H8.3534C8.59422 7.00034 9.23484 7.47987 9.98559 7.47987C10.7363 7.47987 11.3769 7.00034 11.6177 6.33155H14.985L12.9459 11.2639H12.3083C11.9847 11.2639 11.7224 11.5263 11.7224 11.8499C11.7224 14.132 13.5791 15.9887 15.8612 15.9887C18.1434 15.9887 20 14.132 20 11.8499C20 11.5263 19.7377 11.2639 19.4141 11.2639ZM4.13883 14.8168C2.70332 14.8168 1.5027 13.7922 1.22996 12.4358H7.0477C6.77496 13.7922 5.57434 14.8168 4.13883 14.8168ZM5.78613 11.2639H2.49152L4.13883 7.2794L5.78613 11.2639ZM9.98555 6.30799C9.67543 6.30799 9.42316 6.05573 9.42316 5.74561C9.42316 5.43549 9.67543 5.18323 9.98555 5.18323C10.2956 5.18323 10.5479 5.43549 10.5479 5.74561C10.5479 6.05573 10.2957 6.30799 9.98555 6.30799ZM15.8612 7.2794L17.5085 11.2639H14.2139L15.8612 7.2794ZM15.8612 14.8168C14.4257 14.8168 13.225 13.7922 12.9523 12.4358H18.77C18.4973 13.7922 17.2966 14.8168 15.8612 14.8168Z" fill="#282739" />
    <path d="M18.7766 11.2639L15.08 12.7922L16.1019 15.2639H18.7766V11.2639ZM16.7349 6.32553L16.1956 2.36206L11.0571 3.06133L13.0384 7.85377L16.7349 6.32553ZM11.6177 5.15967L7.85429 6.51483L8.80665 9.15967H11.6177V5.15967ZM8.3534 5.15967V9.15967H11.1644L12.1168 6.5149L8.3534 5.15967ZM3.26512 6.32553L6.96166 7.85379L8.94296 3.06142L3.80455 2.36207L3.26512 6.32553ZM1.22344 11.2639V15.2639H3.89809L4.91998 12.7922L1.22344 11.2639ZM7.05418 11.2639L3.35762 12.7922L4.3795 15.2639H7.05418V11.2639ZM5.01504 6.33155V2.33155H-0.966991L1.31848 7.85977L5.01504 6.33155ZM8.3534 6.33155L12.1168 4.97639L11.1645 2.33155H8.3534V6.33155ZM11.6177 6.33155V2.33155H8.80665L7.85429 4.97639L11.6177 6.33155ZM14.985 6.33155L18.6816 7.85977L20.967 2.33155H14.985V6.33155ZM12.9459 11.2639V15.2639H15.6205L16.6424 12.7922L12.9459 11.2639ZM1.22996 12.4358V8.43581H-3.65441L-2.69155 13.2243L1.22996 12.4358ZM7.0477 12.4358L10.9692 13.2243L11.9321 8.43581H7.0477V12.4358ZM5.78613 11.2639V15.2639H11.7682L9.48268 9.73569L5.78613 11.2639ZM2.49152 11.2639L-1.20502 9.73568L-3.49054 15.2639H2.49152V11.2639ZM4.13883 7.2794L7.83538 5.75115L4.13883 -3.19012L0.44228 5.75115L4.13883 7.2794ZM15.8612 7.2794L19.5577 5.75115L15.8612 -3.19012L12.1646 5.75115L15.8612 7.2794ZM17.5085 11.2639V15.2639H23.4905L21.205 9.73569L17.5085 11.2639ZM14.2139 11.2639L10.5173 9.73569L8.2318 15.2639H14.2139V11.2639ZM12.9523 12.4358V8.43581H8.06793L9.0308 13.2243L12.9523 12.4358ZM18.77 12.4358L22.6915 13.2243L23.6544 8.43581H18.77V12.4358ZM19.4141 7.26393H18.7766V15.2639H19.4141V7.26393ZM22.4731 9.7357L20.4315 4.7973L13.0384 7.85377L15.08 12.7922L22.4731 9.7357ZM17.2743 10.289C19.5083 9.98499 21.2413 8.07734 21.2413 5.74561H13.2413C13.2413 4.007 14.5334 2.58826 16.1956 2.36206L17.2743 10.289ZM21.2413 5.74561C21.2413 3.21288 19.1881 1.15967 16.6554 1.15967V9.15967C14.7698 9.15967 13.2413 7.63116 13.2413 5.74561H21.2413ZM16.6554 1.15967H11.6177V9.15967H16.6554V1.15967ZM15.3812 3.80451C14.5889 1.60414 12.4809 0.0113525 9.98559 0.0113525V8.01135C8.99163 8.01135 8.16497 7.37763 7.85429 6.51483L15.3812 3.80451ZM9.98559 0.0113525C7.49022 0.0113525 5.38231 1.60417 4.58997 3.80444L12.1168 6.5149C11.8061 7.37768 10.9795 8.01135 9.98559 8.01135V0.0113525ZM8.3534 1.15967H3.34465V9.15967H8.3534V1.15967ZM3.34465 1.15967C0.811916 1.15967 -1.24129 3.21288 -1.24129 5.74561H6.75871C6.75871 7.63116 5.23019 9.15967 3.34465 9.15967V1.15967ZM-1.24129 5.74561C-1.24129 8.07758 0.492035 9.98499 2.72568 10.289L3.80455 2.36207C5.46648 2.58827 6.75871 4.00677 6.75871 5.74561H-1.24129ZM-0.431425 4.79727L-2.4731 9.73567L4.91998 12.7922L6.96166 7.85379L-0.431425 4.79727ZM1.22344 7.26393H0.585938V15.2639H1.22344V7.26393ZM0.585938 7.26393C-1.9468 7.26393 -4 9.31713 -4 11.8499H4C4 13.7354 2.47148 15.2639 0.585938 15.2639V7.26393ZM-4 11.8499C-4 16.3412 -0.352459 19.9887 4.13883 19.9887V11.9887C4.11514 11.9887 4.10112 11.9847 4.08983 11.9799C4.07582 11.9739 4.05865 11.9633 4.04204 11.9467C4.02542 11.93 4.01476 11.9129 4.00882 11.8989C4.00404 11.8876 4 11.8736 4 11.8499H-4ZM4.13883 19.9887C8.63012 19.9887 12.2777 16.3412 12.2777 11.8499H4.27766C4.27766 11.8736 4.27362 11.8876 4.26883 11.8989C4.2629 11.9129 4.25223 11.93 4.23562 11.9467C4.21901 11.9633 4.20183 11.9739 4.18783 11.9799C4.17654 11.9847 4.16251 11.9887 4.13883 11.9887V19.9887ZM12.2777 11.8499C12.2777 9.31713 10.2245 7.26393 7.69172 7.26393V15.2639C5.80617 15.2639 4.27766 13.7354 4.27766 11.8499H12.2777ZM7.69172 7.26393H7.05418V15.2639H7.69172V7.26393ZM10.7507 9.7357L8.71159 4.80332L1.31848 7.85977L3.35762 12.7922L10.7507 9.7357ZM5.01504 10.3315H8.3534V2.33155H5.01504V10.3315ZM4.58995 7.68671C5.38229 9.88714 7.49024 11.4799 9.98559 11.4799V3.47987C10.9795 3.47987 11.8061 4.11354 12.1168 4.97639L4.58995 7.68671ZM9.98559 11.4799C12.4809 11.4799 14.5889 9.88709 15.3812 7.68671L7.85429 4.97639C8.16497 4.11359 8.99163 3.47987 9.98559 3.47987V11.4799ZM11.6177 10.3315H14.985V2.33155H11.6177V10.3315ZM11.2884 4.80332L9.2493 9.7357L16.6424 12.7922L18.6816 7.85977L11.2884 4.80332ZM12.9459 7.26393H12.3083V15.2639H12.9459V7.26393ZM12.3083 7.26393C9.77559 7.26393 7.72238 9.31713 7.72238 11.8499H15.7224C15.7224 13.7354 14.1939 15.2639 12.3083 15.2639V7.26393ZM7.72238 11.8499C7.72238 16.3412 11.3699 19.9887 15.8612 19.9887V11.9887C15.8375 11.9887 15.8235 11.9847 15.8122 11.9799C15.7982 11.9739 15.781 11.9633 15.7644 11.9467C15.7478 11.93 15.7371 11.9129 15.7312 11.8989C15.7264 11.8876 15.7224 11.8736 15.7224 11.8499H7.72238ZM15.8612 19.9887C20.3525 19.9887 24 16.3411 24 11.8499H16C16 11.8736 15.996 11.8876 15.9912 11.8989C15.9852 11.9129 15.9746 11.9301 15.958 11.9467C15.9414 11.9633 15.9242 11.9739 15.9102 11.9799C15.8989 11.9847 15.8849 11.9887 15.8612 11.9887V19.9887ZM24 11.8499C24 9.31713 21.9468 7.26393 19.4141 7.26393V15.2639C17.5285 15.2639 16 13.7354 16 11.8499H24ZM4.13883 10.8168C4.64856 10.8168 5.05659 11.1754 5.15147 11.6473L-2.69155 13.2243C-2.0512 16.4089 0.758084 18.8168 4.13883 18.8168V10.8168ZM1.22996 16.4358H7.0477V8.43581H1.22996V16.4358ZM3.12619 11.6473C3.22107 11.1754 3.6291 10.8168 4.13883 10.8168V18.8168C7.51957 18.8168 10.3289 16.4089 10.9692 13.2243L3.12619 11.6473ZM5.78613 7.26393H2.49152V15.2639H5.78613V7.26393ZM6.18807 12.7922L7.83538 8.80764L0.44228 5.75115L-1.20502 9.73568L6.18807 12.7922ZM0.44228 8.80764L2.08958 12.7922L9.48268 9.73569L7.83538 5.75115L0.44228 8.80764ZM9.98555 2.30799C11.8846 2.30799 13.4232 3.84659 13.4232 5.74561H5.42316C5.42316 8.26487 7.46629 10.308 9.98555 10.308V2.30799ZM13.4232 5.74561C13.4232 7.64463 11.8846 9.18323 9.98555 9.18323V1.18323C7.46629 1.18323 5.42316 3.22636 5.42316 5.74561H13.4232ZM9.98555 9.18323C8.08667 9.18323 6.54793 7.64481 6.54793 5.74561H14.5479C14.5479 3.22618 12.5046 1.18323 9.98555 1.18323V9.18323ZM6.54793 5.74561C6.54793 3.84659 8.08653 2.30799 9.98555 2.30799V10.308C12.5048 10.308 14.5479 8.26487 14.5479 5.74561H6.54793ZM12.1646 8.80764L13.8119 12.7922L21.205 9.73569L19.5577 5.75115L12.1646 8.80764ZM17.5085 7.26393H14.2139V15.2639H17.5085V7.26393ZM17.9104 12.7922L19.5577 8.80764L12.1646 5.75115L10.5173 9.73569L17.9104 12.7922ZM15.8612 10.8168C16.3709 10.8168 16.7789 11.1754 16.8738 11.6473L9.0308 13.2243C9.67114 16.4089 12.4804 18.8168 15.8612 18.8168V10.8168ZM12.9523 16.4358H18.77V8.43581H12.9523V16.4358ZM14.8485 11.6473C14.9434 11.1754 15.3514 10.8168 15.8612 10.8168V18.8168C19.2418 18.8168 22.0512 16.4089 22.6915 13.2243L14.8485 11.6473Z" fill="#282739" mask="url(#path-1-inside-1_1_15994)" />
  </symbol>
  <symbol viewBox="0 0 20 20" xmlns="http://www.w3.org/2000/svg" id="heart">
    <path d="M17.9935 5.51496C17.7329 4.90541 17.357 4.35303 16.887 3.88876C16.4167 3.4231 15.8621 3.05305 15.2535 2.79873C14.6224 2.53397 13.9455 2.39845 13.2622 2.40004C12.3034 2.40004 11.3681 2.66518 10.5552 3.166C10.3607 3.28581 10.176 3.4174 10.001 3.56077C9.82594 3.4174 9.6412 3.28581 9.44673 3.166C8.63386 2.66518 7.69847 2.40004 6.73975 2.40004C6.0494 2.40004 5.38043 2.53359 4.74841 2.79873C4.13779 3.05405 3.58745 3.42132 3.11489 3.88876C2.64428 4.35251 2.26834 4.90501 2.00838 5.51496C1.73807 6.14934 1.6 6.823 1.6 7.51629C1.6 8.17031 1.73224 8.85182 1.99477 9.54512C2.21451 10.1245 2.52955 10.7255 2.9321 11.3324C3.56995 12.2928 4.44699 13.2944 5.536 14.3098C7.34066 15.993 9.1278 17.1557 9.20365 17.2028L9.66453 17.5013C9.86872 17.6329 10.1313 17.6329 10.3354 17.5013L10.7963 17.2028C10.8722 17.1537 12.6574 15.993 14.464 14.3098C15.553 13.2944 16.43 12.2928 17.0679 11.3324C17.4704 10.7255 17.7874 10.1245 18.0052 9.54512C18.2677 8.85182 18.4 8.17031 18.4 7.51629C18.4019 6.823 18.2639 6.14934 17.9935 5.51496ZM10.001 15.9478C10.001 15.9478 3.07795 11.4679 3.07795 7.51629C3.07795 5.51496 4.7173 3.89269 6.73975 3.89269C8.1613 3.89269 9.39422 4.69401 10.001 5.86456C10.6077 4.69401 11.8406 3.89269 13.2622 3.89269C15.2846 3.89269 16.924 5.51496 16.924 7.51629C16.924 11.4679 10.001 15.9478 10.001 15.9478Z" />
  </symbol>
  <symbol viewBox="0 0 16 14" fill="none" xmlns="http://www.w3.org/2000/svg" id="heart2">
    <path d="M1.65221 0.76799C3.75184 -0.631767 6.00455 0.162506 7.2051 0.941217C7.54845 0.788517 8.2858 0.571255 9.65234 0.267578C14.1523 -0.732422 14.1523 1.76758 15.1523 3.26758C15.9523 4.46758 14.819 6.76758 14.1523 7.76758L7.65221 13.7676L0.652208 7.26758C-0.0144587 5.76772 -0.747792 2.36799 1.65221 0.76799Z" fill="#6F73EE" />
  </symbol>
  <symbol viewBox="0 0 20 20" fill="none" xmlns="http://www.w3.org/2000/svg" id="cart">
    <g clip-path="url(#clip0_1_16000)">
      <path d="M19.1523 7.25427H15.0031L12.6756 1.92486C12.5461 1.62833 12.2007 1.49282 11.9042 1.62239C11.6076 1.75189 11.4722 2.09732 11.6017 2.39388L13.7244 7.25431H6.27561L8.39827 2.39388C8.52776 2.09732 8.39237 1.75193 8.09581 1.62239C7.79929 1.49282 7.45382 1.62825 7.32436 1.92486L4.99686 7.25427H0.847685C0.304911 7.25427 -0.0979012 7.74564 0.0208488 8.26286L2.20581 17.7797C2.29257 18.1576 2.63608 18.4261 3.03265 18.4261H16.9673C17.3639 18.4261 17.7074 18.1576 17.7942 17.7797L19.9791 8.26286C20.0979 7.74568 19.695 7.25427 19.1523 7.25427ZM5.1071 9.0513C5.02882 9.0513 4.94925 9.03552 4.87288 9.00216C4.57632 8.87267 4.44089 8.52728 4.57042 8.23068L5.01057 7.22278H6.28933L5.64432 8.69966C5.54819 8.91993 5.33296 9.0513 5.1071 9.0513ZM7.0703 15.3011C7.0703 15.6247 6.80796 15.8871 6.48436 15.8871C6.16077 15.8871 5.89843 15.6247 5.89843 15.3011V11.0043C5.89843 10.6807 6.16077 10.4183 6.48436 10.4183C6.80796 10.4183 7.0703 10.6807 7.0703 11.0043V15.3011ZM10.5859 15.3011C10.5859 15.6247 10.3236 15.8871 9.99999 15.8871C9.6764 15.8871 9.41405 15.6247 9.41405 15.3011V11.0043C9.41405 10.6807 9.6764 10.4183 9.99999 10.4183C10.3236 10.4183 10.5859 10.6807 10.5859 11.0043V15.3011ZM14.1016 15.3011C14.1016 15.6247 13.8392 15.8871 13.5156 15.8871C13.192 15.8871 12.9297 15.6247 12.9297 15.3011V11.0043C12.9297 10.6807 13.192 10.4183 13.5156 10.4183C13.8392 10.4183 14.1016 10.6807 14.1016 11.0043V15.3011ZM15.1271 9.00216C15.0507 9.03552 14.9712 9.0513 14.8929 9.0513C14.667 9.0513 14.4518 8.91997 14.3556 8.6997L13.7106 7.22282H14.9894L15.4295 8.23071C15.5591 8.52728 15.4236 8.87267 15.1271 9.00216Z" fill="#6F73EE" />
    </g>
    <defs>
      <clipPath id="clip0_1_16000">
        <rect width="20" height="20" fill="white" />
      </clipPath>
    </defs>
  </symbol>
  <symbol viewBox="0 0 20 20" fill="none" xmlns="http://www.w3.org/2000/svg" id="cart2">
    <g clip-path="url(#clip0_469_355)">
      <path d="M11.9042 1.62234C12.2007 1.49293 12.5463 1.62863 12.6757 1.92508L14.7646 6.70731H18.6161C19.0428 6.70737 19.439 6.89762 19.7031 7.22879C19.9622 7.554 20.0581 7.97238 19.9658 8.37625L17.9081 17.3606C17.7645 17.988 17.2095 18.4261 16.5585 18.4261H3.44135C2.79037 18.4261 2.23537 17.988 2.09174 17.3606L0.0341187 8.37625C-0.0581856 7.97239 0.0376428 7.55399 0.296814 7.22879C0.560867 6.89759 0.957098 6.70738 1.38373 6.70731H5.23529L7.32416 1.92508C7.45362 1.62855 7.79917 1.49294 8.09564 1.62234C8.39209 1.75183 8.52762 2.09734 8.39838 2.39383L6.51459 6.70731H13.4853L11.6015 2.39383C11.4722 2.09734 11.6078 1.75179 11.9042 1.62234ZM1.38373 7.87918C1.29075 7.87927 1.23656 7.92944 1.21283 7.95926C1.18723 7.99134 1.16058 8.04508 1.1767 8.11551L3.23334 17.0989C3.25392 17.1888 3.34185 17.2542 3.44135 17.2542H16.5585C16.6579 17.2542 16.7458 17.1896 16.7665 17.0999L18.8232 8.11551C18.8393 8.04513 18.8126 7.99137 18.787 7.95926C18.7633 7.92943 18.7092 7.87924 18.6161 7.87918H15.2763L15.4296 8.23074C15.5592 8.52731 15.4235 8.87274 15.1269 9.00223C15.0506 9.03558 14.9708 9.05203 14.8925 9.05203C14.6669 9.0519 14.4516 8.92044 14.3554 8.70047L13.997 7.87918H6.00287L5.64447 8.70047C5.54828 8.92041 5.33303 9.05193 5.10736 9.05203C5.02904 9.05203 4.94931 9.03559 4.87299 9.00223C4.57645 8.87268 4.44077 8.52729 4.57025 8.23074L4.72357 7.87918H1.38373Z" fill="#6F73EE" />
      <path d="M11.9042 1.62234C12.2007 1.49293 12.5463 1.62863 12.6757 1.92508L14.7646 6.70731H18.6161C19.0428 6.70737 19.439 6.89762 19.7031 7.22879C19.9622 7.554 20.0581 7.97238 19.9658 8.37625L17.9081 17.3606C17.7645 17.988 17.2095 18.4261 16.5585 18.4261H3.44135C2.79037 18.4261 2.23537 17.988 2.09174 17.3606L0.0341187 8.37625C-0.0581856 7.97239 0.0376428 7.55399 0.296814 7.22879C0.560867 6.89759 0.957098 6.70738 1.38373 6.70731H5.23529L7.32416 1.92508C7.45362 1.62855 7.79917 1.49294 8.09564 1.62234C8.39209 1.75183 8.52762 2.09734 8.39838 2.39383L6.51459 6.70731H13.4853L11.6015 2.39383C11.4722 2.09734 11.6078 1.75179 11.9042 1.62234ZM1.38373 7.87918C1.29075 7.87927 1.23656 7.92944 1.21283 7.95926C1.18723 7.99134 1.16058 8.04508 1.1767 8.11551L3.23334 17.0989C3.25392 17.1888 3.34185 17.2542 3.44135 17.2542H16.5585C16.6579 17.2542 16.7458 17.1896 16.7665 17.0999L18.8232 8.11551C18.8393 8.04513 18.8126 7.99137 18.787 7.95926C18.7633 7.92943 18.7092 7.87924 18.6161 7.87918H15.2763L15.4296 8.23074C15.5592 8.52731 15.4235 8.87274 15.1269 9.00223C15.0506 9.03558 14.9708 9.05203 14.8925 9.05203C14.6669 9.0519 14.4516 8.92044 14.3554 8.70047L13.997 7.87918H6.00287L5.64447 8.70047C5.54828 8.92041 5.33303 9.05193 5.10736 9.05203C5.02904 9.05203 4.94931 9.03559 4.87299 9.00223C4.57645 8.87268 4.44077 8.52729 4.57025 8.23074L4.72357 7.87918H1.38373Z" stroke="#6F73EE" />
      <path d="M6.48438 10.4188C6.80801 10.4188 7.07031 10.6812 7.07031 11.0048V15.3016C7.07031 15.6252 6.80797 15.8876 6.48438 15.8876C6.16078 15.8876 5.89844 15.6252 5.89844 15.3016V11.0048C5.89844 10.6812 6.16078 10.4188 6.48438 10.4188Z" fill="#6F73EE" />
      <path d="M6.48438 10.4188C6.80801 10.4188 7.07031 10.6812 7.07031 11.0048V15.3016C7.07031 15.6252 6.80797 15.8876 6.48438 15.8876C6.16078 15.8876 5.89844 15.6252 5.89844 15.3016V11.0048C5.89844 10.6812 6.16078 10.4188 6.48438 10.4188Z" stroke="#6F73EE" />
      <path d="M10 10.4188C10.3236 10.4188 10.5859 10.6812 10.5859 11.0048V15.3016C10.5859 15.6252 10.3236 15.8876 10 15.8876C9.67641 15.8876 9.41406 15.6252 9.41406 15.3016V11.0048C9.41406 10.6812 9.67641 10.4188 10 10.4188Z" fill="#6F73EE" />
      <path d="M10 10.4188C10.3236 10.4188 10.5859 10.6812 10.5859 11.0048V15.3016C10.5859 15.6252 10.3236 15.8876 10 15.8876C9.67641 15.8876 9.41406 15.6252 9.41406 15.3016V11.0048C9.41406 10.6812 9.67641 10.4188 10 10.4188Z" stroke="#6F73EE" />
      <path d="M13.5156 10.4188C13.8392 10.4188 14.1015 10.6812 14.1016 11.0048V15.3016C14.1016 15.6252 13.8392 15.8876 13.5156 15.8876C13.192 15.8876 12.9297 15.6252 12.9297 15.3016V11.0048C12.9297 10.6812 13.192 10.4188 13.5156 10.4188Z" fill="#6F73EE" />
      <path d="M13.5156 10.4188C13.8392 10.4188 14.1015 10.6812 14.1016 11.0048V15.3016C14.1016 15.6252 13.8392 15.8876 13.5156 15.8876C13.192 15.8876 12.9297 15.6252 12.9297 15.3016V11.0048C12.9297 10.6812 13.192 10.4188 13.5156 10.4188Z" stroke="#6F73EE" />
    </g>
    <defs>
      <clipPath id="clip0_469_355">
        <rect width="20" height="20" fill="white" />
      </clipPath>
    </defs>
  </symbol>
  <symbol viewBox="0 0 15 16" xmlns="http://www.w3.org/2000/svg" id="scooter">
    <path d="M12.2656 10.5047L9.64062 1.5203L11.4062 1.32967C11.7719 1.28905 12.0375 0.96092 11.9969 0.595295C11.9563 0.22967 11.6312 -0.0390795 11.2625 0.00467053L6.16562 0.554671C5.8 0.595295 5.53437 0.923421 5.575 1.28905C5.6125 1.62967 5.9 1.8828 6.2375 1.8828C6.2625 1.8828 6.28437 1.8828 6.30937 1.87967L8.29688 1.66717L10.9719 10.8422C10.4438 11.1515 10.0469 11.6515 9.87187 12.2453H4.77812C4.48438 11.2422 3.55 10.5047 2.4375 10.5047C1.09063 10.5047 0 11.5828 0 12.9109C0 14.239 1.09063 15.3172 2.4375 15.3172C3.55 15.3172 4.48438 14.5828 4.77812 13.5765H9.86875C10.1625 14.5797 11.0969 15.3172 12.2094 15.3172C13.5562 15.3172 14.6469 14.239 14.6469 12.9109C14.6469 11.5984 13.5875 10.5328 12.2656 10.5047Z" />
  </symbol>
  <symbol viewBox="0 0 16 16" fill="none" xmlns="http://www.w3.org/2000/svg" id="energy">
    <path d="M12.1998 0H6.19959L3.80035 8.63849H6.20448L4.16032 16H4.88044L11.8393 7.36114H8.31397L12.1998 0Z" fill="white" />
  </symbol>
  <symbol viewBox="0 0 22 22" fill="none" xmlns="http://www.w3.org/2000/svg" id="check">
    <path d="M15.0168 7.58398H14.0092C13.79 7.58398 13.5816 7.68926 13.4527 7.86973L10.0754 12.5533L8.54566 10.4307C8.41676 10.2523 8.21051 10.1449 7.98922 10.1449H6.9816C6.84195 10.1449 6.76031 10.3039 6.84195 10.4178L9.51891 14.1303C9.58215 14.2185 9.66552 14.2905 9.7621 14.3401C9.85868 14.3897 9.9657 14.4156 10.0743 14.4156C10.1829 14.4156 10.2899 14.3897 10.3865 14.3401C10.483 14.2905 10.5664 14.2185 10.6297 14.1303L15.1543 7.85684C15.2381 7.74297 15.1564 7.58398 15.0168 7.58398V7.58398Z" fill="#6F73EE" />
    <path d="M11 1.375C5.68477 1.375 1.375 5.68477 1.375 11C1.375 16.3152 5.68477 20.625 11 20.625C16.3152 20.625 20.625 16.3152 20.625 11C20.625 5.68477 16.3152 1.375 11 1.375ZM11 18.9922C6.58711 18.9922 3.00781 15.4129 3.00781 11C3.00781 6.58711 6.58711 3.00781 11 3.00781C15.4129 3.00781 18.9922 6.58711 18.9922 11C18.9922 15.4129 15.4129 18.9922 11 18.9922Z" fill="#6F73EE" />
  </symbol>
  <symbol viewBox="0 0 18 18" fill="none" xmlns="http://www.w3.org/2000/svg" id="battery">
    <path d="M16.5 3.75001V2.99999C16.5 2.58655 16.1638 2.25 15.75 2.25H13.5C13.0862 2.25 12.75 2.58655 12.75 2.99999V3.74998H12.5303L12.2198 3.43944C11.9407 3.16002 11.554 2.99999 11.1592 2.99999H6.84081C6.44604 2.99999 6.05932 3.16002 5.78025 3.43944L5.46971 3.74998H5.24999V2.99999C5.24999 2.58655 4.91382 2.25 4.5 2.25H2.25C1.83618 2.25 1.50001 2.58655 1.50001 2.99999V3.74998C0.673102 3.75001 0 4.42273 0 5.24999V14.25C0 15.0773 0.673102 15.75 1.50001 15.75H16.5C17.3269 15.75 18 15.0773 18 14.25V5.24999C18 4.42273 17.3269 3.75001 16.5 3.75001ZM4.12499 7.49999H2.62501C2.41773 7.49999 2.25 7.33226 2.25 7.12498C2.25 6.91773 2.41773 6.75 2.62501 6.75H4.12502C4.3323 6.75 4.50004 6.91773 4.50004 7.12501C4.5 7.33229 4.33227 7.49999 4.12499 7.49999ZM15.375 7.49999H15V7.875C15 8.08228 14.8322 8.25001 14.625 8.25001C14.4177 8.25001 14.25 8.08228 14.25 7.875V7.49999H13.8749C13.6677 7.49999 13.4999 7.33226 13.4999 7.12498C13.4999 6.9177 13.6677 6.74996 13.8749 6.74996H14.25V6.37495C14.25 6.16767 14.4177 5.99994 14.625 5.99994C14.8322 5.99994 15 6.16767 15 6.37495V6.75H15.375C15.5823 6.75 15.75 6.91773 15.75 7.12501C15.75 7.33229 15.5823 7.49999 15.375 7.49999Z" fill="#5D6C7B" />
  </symbol>
  <symbol viewBox="0 0 18 18" fill="none" xmlns="http://www.w3.org/2000/svg" id="speedometer">
    <path d="M8.47256 4.5644V1.23605C6.43975 1.35274 4.53344 2.14266 3.01184 3.49874L5.36506 5.85196C6.25065 5.11474 7.32597 4.66917 8.47256 4.5644Z" fill="#5D6C7B" />
    <path d="M4.61919 6.59759L2.266 4.24442C0.908759 5.76559 0.117849 7.67203 0.000427246 9.70533H3.32892C3.43438 8.5585 3.88087 7.48311 4.61919 6.59759Z" fill="#5D6C7B" />
    <path d="M14.671 9.70533H17.9995C17.8821 7.67203 17.0912 5.76559 15.7339 4.24442L13.3807 6.59759C14.1191 7.48307 14.5655 8.5585 14.671 9.70533Z" fill="#5D6C7B" />
    <path d="M14.6704 10.76C14.4959 12.676 13.4442 13.845 13.0266 14.2625C12.8203 14.4688 12.8203 14.8033 13.0266 15.0096L14.6267 16.6097C14.7298 16.7128 14.865 16.7644 15.0002 16.7644C15.1354 16.7644 15.2705 16.7128 15.3737 16.6097C16.9531 15.0305 17.874 12.9698 18 10.76H14.6704Z" fill="#5D6C7B" />
    <path d="M3.27189 13.7858C3.41919 13.5544 3.64215 13.2058 3.90962 12.7933C3.63544 12.2499 3.40358 11.5724 3.32965 10.76H0C0.126035 12.9698 1.04695 15.0305 2.62628 16.6097C2.72943 16.7129 2.8646 16.7644 2.99978 16.7644C3.13495 16.7644 3.27016 16.7128 3.37331 16.6097L3.92119 16.0618C3.76249 15.9854 3.61607 15.8821 3.48785 15.754C2.95952 15.2256 2.87068 14.4163 3.27189 13.7858Z" fill="#5D6C7B" />
    <path d="M9.52734 1.23605V4.5644C10.6739 4.66917 11.7493 5.1147 12.6348 5.85196L14.9881 3.49874C13.4665 2.14263 11.5601 1.35274 9.52734 1.23605Z" fill="#5D6C7B" />
    <path d="M7.82841 9.06992C7.01222 9.8861 4.45108 13.8972 4.16175 14.352C4.02903 14.5605 4.05899 14.8332 4.23375 15.008C4.40851 15.1827 4.68122 15.2127 4.88976 15.08C5.34444 14.7906 9.35564 12.2295 10.1718 11.4133C10.8179 10.7673 10.8179 9.71602 10.1718 9.06995C9.52576 8.42389 8.47448 8.42385 7.82841 9.06992Z" fill="#5D6C7B" />
  </symbol>
  <symbol viewBox="0 0 18 18" fill="none" xmlns="http://www.w3.org/2000/svg" id="power">
    <path d="M14.2233 0.260732C14.14 0.101188 13.9749 0 13.7948 0H6.72925C6.51557 0 6.32727 0.141421 6.26614 0.346092L3.74218 8.80412C3.69851 8.95043 3.72654 9.10792 3.81776 9.23032C3.90898 9.35277 4.0527 9.42405 4.20529 9.42405H8.16696L6.57097 17.4212C6.52452 17.6538 6.65367 17.8862 6.87586 17.9691C6.93126 17.9898 6.98841 18 7.04477 18C7.21428 18 7.37679 17.9106 7.46487 17.7559L13.689 6.82597C13.7741 6.67634 13.7733 6.49172 13.6868 6.34287C13.6003 6.19402 13.4412 6.10147 13.269 6.10147H10.4664L14.1912 0.760267C14.2942 0.612563 14.3066 0.420397 14.2233 0.260732Z" fill="#5D6C7B" />
  </symbol>
  <symbol viewBox="0 0 18 18" fill="none" xmlns="http://www.w3.org/2000/svg" id="timer">
    <g clip-path="url(#clip0_469_341)">
      <path d="M14.4526 5.35819L15.5303 4.28044L14.4698 3.21956L13.3169 4.3725C12.2636 3.62609 11.0346 3.16607 9.75007 3.0375V1.5H11.2501V0H6.75007V1.5H8.25007V3.0375C6.96557 3.16607 5.7365 3.62609 4.68325 4.3725L3.53031 3.21956L2.46982 4.28044L3.54757 5.35819C2.54155 6.42334 1.86955 7.75982 1.61454 9.20259C1.35953 10.6454 1.53269 12.1312 2.11264 13.4767C2.69258 14.8222 3.6539 15.9683 4.8779 16.7736C6.10189 17.5788 7.53493 18.008 9.00007 18.008C10.4652 18.008 11.8982 17.5788 13.1222 16.7736C14.3462 15.9683 15.3076 14.8222 15.8875 13.4767C16.4674 12.1312 16.6406 10.6454 16.3856 9.20259C16.1306 7.75982 15.4586 6.42334 14.4526 5.35819ZM9.00007 16.5C7.81338 16.5 6.65334 16.1481 5.66664 15.4888C4.67995 14.8295 3.91091 13.8925 3.45679 12.7961C3.00266 11.6997 2.88384 10.4933 3.11535 9.32946C3.34686 8.16557 3.91831 7.09647 4.75742 6.25736C5.59654 5.41824 6.66564 4.8468 7.82952 4.61529C8.99341 4.38378 10.1998 4.5026 11.2962 4.95672C12.3925 5.41085 13.3296 6.17988 13.9889 7.16658C14.6482 8.15327 15.0001 9.31331 15.0001 10.5C14.9983 12.0908 14.3656 13.6158 13.2407 14.7407C12.1159 15.8655 10.5908 16.4982 9.00007 16.5Z" fill="#5D6C7B" />
      <path d="M9 6.00015V10.5002H4.5C4.5 11.3902 4.76392 12.2602 5.25839 13.0002C5.75285 13.7402 6.45566 14.317 7.27792 14.6576C8.10019 14.9982 9.00499 15.0873 9.87791 14.9137C10.7508 14.7401 11.5526 14.3115 12.182 13.6821C12.8113 13.0528 13.2399 12.251 13.4135 11.3781C13.5872 10.5051 13.4981 9.60034 13.1575 8.77808C12.8169 7.95581 12.2401 7.25301 11.5001 6.75854C10.76 6.26407 9.89002 6.00015 9 6.00015Z" fill="#5D6C7B" />
    </g>
    <defs>
      <clipPath id="clip0_469_341">
        <rect width="18" height="18" fill="white" />
      </clipPath>
    </defs>
  </symbol>
  <symbol viewBox="0 0 7 12" fill="none" xmlns="http://www.w3.org/2000/svg" id="next">
    <path d="M6.0533 4.99263C6.3462 5.28553 6.3462 5.7604 6.0533 6.05329L1.28033 10.8263C0.987439 11.1192 0.512565 11.1192 0.219672 10.8263C-0.0732217 10.5334 -0.0732218 10.0585 0.219672 9.76561L4.46231 5.52296L0.219671 1.28032C-0.0732226 0.987431 -0.0732226 0.512557 0.219671 0.219664C0.512564 -0.0732294 0.987438 -0.0732295 1.28033 0.219664L6.0533 4.99263ZM4.52297 4.77296L5.52297 4.77296L5.52297 6.27296L4.52297 6.27296L4.52297 4.77296Z" fill="#6F73EE" />
  </symbol>
  <symbol viewBox="0 0 7 12" fill="none" xmlns="http://www.w3.org/2000/svg" id="prev">
    <path d="M0.21967 4.99263C-0.0732233 5.28553 -0.0732234 5.7604 0.21967 6.05329L4.99264 10.8263C5.28553 11.1192 5.76041 11.1192 6.0533 10.8263C6.34619 10.5334 6.34619 10.0585 6.0533 9.76561L1.81066 5.52296L6.0533 1.28032C6.34619 0.987431 6.34619 0.512557 6.0533 0.219664C5.76041 -0.0732294 5.28553 -0.0732295 4.99264 0.219664L0.21967 4.99263ZM1.75 4.77296L0.75 4.77296L0.75 6.27296L1.75 6.27296L1.75 4.77296Z" fill="#6F73EE" />
  </symbol>
          
</svg>

