<svg width="0" height="0" class="hidden">
  <symbol viewBox="0 0 12 12" xmlns="http://www.w3.org/2000/svg" id="viber">
    <path d="M6.40796 6.77975C6.27072 6.91708 6.04815 6.91708 5.91082 6.77975L4.31323 5.18216C4.24731 5.11624 4.21023 5.02679 4.21023 4.93359C4.21023 4.8403 4.24731 4.75095 4.31323 4.68494L4.59723 4.40103L3.76309 3.56689L3.07974 4.25024C2.84976 4.48022 2.84985 4.8544 3.07974 5.08438L6.0086 8.01343C6.11929 8.12411 6.26742 8.185 6.42572 8.185C6.58401 8.185 6.73214 8.12402 6.84283 8.01334L7.52618 7.33008L6.69204 6.49585L6.40796 6.77975Z" />
    <path d="M11.4957 4.23541C11.4957 3.10831 11.0541 2.04593 10.2519 1.24384C9.4498 0.441742 8.38742 0 7.26041 0H4.75085C4.75085 0 4.75085 0 4.75076 0C3.62384 0 2.56146 0.441742 1.75946 1.24374C0.957367 2.04584 0.515625 3.10831 0.515625 4.23532V6.20792C0.515625 7.08069 0.78186 7.92032 1.28558 8.63599C1.72998 9.26733 2.32764 9.76044 3.02444 10.0732V11.2062C3.02444 11.7921 3.35248 11.9999 3.63336 12C3.83405 12 4.03482 11.9009 4.23019 11.7057L5.49243 10.4432H7.2605C8.38751 10.4432 9.44989 10.0015 10.252 9.1994C11.0541 8.39731 11.4958 7.33493 11.4958 6.20792L11.4957 4.23541ZM8.27197 7.57864L7.33997 8.51056C7.09644 8.75409 6.77179 8.88803 6.42572 8.88803C6.07965 8.88803 5.755 8.754 5.51147 8.51056L2.58252 5.58151C2.07852 5.07733 2.07852 4.25711 2.58252 3.75302L3.51453 2.82111C3.58044 2.7551 3.6698 2.71811 3.76309 2.71811C3.85629 2.71811 3.94574 2.7551 4.01166 2.82111L5.34302 4.15247C5.40894 4.21838 5.44592 4.30783 5.44592 4.40103C5.44592 4.49423 5.40894 4.58368 5.34293 4.6496L5.05902 4.9335L6.15948 6.03397L6.44348 5.74997C6.58081 5.61273 6.80338 5.61273 6.94061 5.75006L8.27197 7.08142C8.33798 7.14734 8.37497 7.23679 8.37497 7.32999C8.37497 7.42328 8.33798 7.51273 8.27197 7.57864ZM5.73944 3.41299C5.73944 3.2189 5.89682 3.06143 6.091 3.06143C7.30911 3.06143 8.30017 4.0524 8.30017 5.27042C8.30017 5.4646 8.14279 5.62198 7.94861 5.62198C7.75452 5.62198 7.59705 5.4646 7.59705 5.27042C7.59705 4.44012 6.92148 3.76456 6.091 3.76456C5.89682 3.76456 5.73944 3.60718 5.73944 3.41299ZM9.45474 5.62216C9.26056 5.62216 9.10318 5.46469 9.10318 5.2706C9.10327 4.46594 8.78989 3.70953 8.22098 3.14053C7.65198 2.57162 6.89557 2.25824 6.09091 2.25824C5.89682 2.25824 5.73935 2.10086 5.73935 1.90668C5.73935 1.71259 5.89682 1.55511 6.09091 1.55511C7.08334 1.55511 8.01636 1.94165 8.71811 2.6434C9.41995 3.34515 9.8064 4.27817 9.8063 5.2706C9.8063 5.46469 9.64893 5.62216 9.45474 5.62216Z" />
  </symbol>
  <symbol viewBox="0 0 12 12" xmlns="http://www.w3.org/2000/svg" id="whatsapp">
      <path d="M5.99685 0.00378706C2.68509 0.00448977 0.0009558 2.68978 0.00165851 6.00153C0.00189275 7.14828 0.330971 8.2709 0.949824 9.23633L0.0168839 11.6569C-0.0327977 11.7856 0.0312894 11.9303 0.160026 11.98C0.188813 11.9911 0.219381 11.9968 0.25023 11.9967C0.278854 11.9969 0.307267 11.992 0.334181 11.9822L2.83271 11.0902C5.64383 12.841 9.342 11.9815 11.0928 9.17033C12.8436 6.35918 11.984 2.66104 9.17286 0.910259C8.21994 0.31675 7.11952 0.00268615 5.99685 0.00378706Z" />
      <path d="M8.85557 7.02445C8.85557 7.02445 8.24344 6.72462 7.86016 6.52475C7.42642 6.30138 6.91672 6.71963 6.67686 6.9575C6.30356 6.8141 5.96261 6.59767 5.67396 6.32087C5.39711 6.03227 5.18068 5.69131 5.03732 5.31796C5.27519 5.07761 5.69244 4.56841 5.47008 4.13467C5.27269 3.7509 4.97038 3.13877 4.97038 3.13877C4.92796 3.05458 4.84178 3.00144 4.7475 3.00134H4.24781C3.52008 3.12703 2.99097 3.762 2.99855 4.50046C2.99855 5.28498 3.93749 6.79211 4.57063 7.42572C5.20377 8.05933 6.71087 8.99779 7.49589 8.99779C8.23435 9.00538 8.86932 8.47624 8.99501 7.74854V7.24884C8.99508 7.15356 8.94102 7.06654 8.85557 7.02445Z" fill="#F7F7F7" />
  </symbol>
  <symbol viewBox="0 0 12 12" xmlns="http://www.w3.org/2000/svg" id="telegram">
    <path d="M4.70847 7.59058L4.50997 10.3826C4.79397 10.3826 4.91697 10.2606 5.06447 10.1141L6.39597 8.84158L9.15497 10.8621C9.66097 11.1441 10.0175 10.9956 10.154 10.3966L11.965 1.91058L11.9655 1.91008C12.126 1.16208 11.695 0.869581 11.202 1.05308L0.556967 5.12858C-0.169533 5.41058 -0.158533 5.81558 0.433467 5.99908L3.15497 6.84558L9.47647 2.89008C9.77397 2.69308 10.0445 2.80208 9.82197 2.99908L4.70847 7.59058Z" />
  </symbol>
  <symbol viewBox="0 0 16 16" fill="none" xmlns="http://www.w3.org/2000/svg" id="search">
    <path d="M15.9519 14.8499L10.758 9.65596C11.564 8.61396 11.9999 7.33997 11.9999 5.99997C11.9999 4.39598 11.374 2.89199 10.242 1.75799C9.10996 0.623997 7.60197 0 5.99997 0C4.39798 0 2.88999 0.625997 1.75799 1.75799C0.623997 2.88999 0 4.39598 0 5.99997C0 7.60197 0.625997 9.10996 1.75799 10.242C2.88999 11.376 4.39598 11.9999 5.99997 11.9999C7.33997 11.9999 8.61196 11.564 9.65396 10.76L14.8479 15.9519C14.8632 15.9672 14.8812 15.9793 14.9012 15.9875C14.9211 15.9958 14.9424 16 14.9639 16C14.9855 16 15.0068 15.9958 15.0267 15.9875C15.0466 15.9793 15.0647 15.9672 15.0799 15.9519L15.9519 15.0819C15.9672 15.0667 15.9793 15.0486 15.9875 15.0287C15.9958 15.0088 16 14.9875 16 14.9659C16 14.9444 15.9958 14.9231 15.9875 14.9032C15.9793 14.8833 15.9672 14.8652 15.9519 14.8499ZM9.16796 9.16796C8.31996 10.014 7.19597 10.48 5.99997 10.48C4.80398 10.48 3.67998 10.014 2.83199 9.16796C1.98599 8.31996 1.51999 7.19597 1.51999 5.99997C1.51999 4.80398 1.98599 3.67798 2.83199 2.83199C3.67998 1.98599 4.80398 1.51999 5.99997 1.51999C7.19597 1.51999 8.32196 1.98399 9.16796 2.83199C10.014 3.67998 10.48 4.80398 10.48 5.99997C10.48 7.19597 10.014 8.32196 9.16796 9.16796Z" fill="white" />
  </symbol>
  <symbol viewBox="0 0 20 20" fill="none" xmlns="http://www.w3.org/2000/svg" id="balance">
    <mask id="path-1-inside-1_1_15994" fill="white">
      <path d="M19.4141 11.2639H18.7766L16.7349 6.32553C17.0208 6.28663 17.2413 6.04217 17.2413 5.74561C17.2413 5.42202 16.979 5.15967 16.6554 5.15967H11.6177C11.3769 4.49088 10.7363 4.01135 9.98559 4.01135C9.23488 4.01135 8.59422 4.49092 8.3534 5.15967H3.34465C3.02105 5.15967 2.75871 5.42202 2.75871 5.74561C2.75871 6.04217 2.97926 6.28663 3.26512 6.32553L1.22344 11.2639H0.585938C0.262344 11.2639 0 11.5263 0 11.8499C0 14.132 1.85668 15.9887 4.13883 15.9887C6.42098 15.9887 8.27766 14.132 8.27766 11.8499C8.27766 11.5263 8.01531 11.2639 7.69172 11.2639H7.05418L5.01504 6.33155H8.3534C8.59422 7.00034 9.23484 7.47987 9.98559 7.47987C10.7363 7.47987 11.3769 7.00034 11.6177 6.33155H14.985L12.9459 11.2639H12.3083C11.9847 11.2639 11.7224 11.5263 11.7224 11.8499C11.7224 14.132 13.5791 15.9887 15.8612 15.9887C18.1434 15.9887 20 14.132 20 11.8499C20 11.5263 19.7377 11.2639 19.4141 11.2639ZM4.13883 14.8168C2.70332 14.8168 1.5027 13.7922 1.22996 12.4358H7.0477C6.77496 13.7922 5.57434 14.8168 4.13883 14.8168ZM5.78613 11.2639H2.49152L4.13883 7.2794L5.78613 11.2639ZM9.98555 6.30799C9.67543 6.30799 9.42316 6.05573 9.42316 5.74561C9.42316 5.43549 9.67543 5.18323 9.98555 5.18323C10.2956 5.18323 10.5479 5.43549 10.5479 5.74561C10.5479 6.05573 10.2957 6.30799 9.98555 6.30799ZM15.8612 7.2794L17.5085 11.2639H14.2139L15.8612 7.2794ZM15.8612 14.8168C14.4257 14.8168 13.225 13.7922 12.9523 12.4358H18.77C18.4973 13.7922 17.2966 14.8168 15.8612 14.8168Z" />
    </mask>
    <path d="M19.4141 11.2639H18.7766L16.7349 6.32553C17.0208 6.28663 17.2413 6.04217 17.2413 5.74561C17.2413 5.42202 16.979 5.15967 16.6554 5.15967H11.6177C11.3769 4.49088 10.7363 4.01135 9.98559 4.01135C9.23488 4.01135 8.59422 4.49092 8.3534 5.15967H3.34465C3.02105 5.15967 2.75871 5.42202 2.75871 5.74561C2.75871 6.04217 2.97926 6.28663 3.26512 6.32553L1.22344 11.2639H0.585938C0.262344 11.2639 0 11.5263 0 11.8499C0 14.132 1.85668 15.9887 4.13883 15.9887C6.42098 15.9887 8.27766 14.132 8.27766 11.8499C8.27766 11.5263 8.01531 11.2639 7.69172 11.2639H7.05418L5.01504 6.33155H8.3534C8.59422 7.00034 9.23484 7.47987 9.98559 7.47987C10.7363 7.47987 11.3769 7.00034 11.6177 6.33155H14.985L12.9459 11.2639H12.3083C11.9847 11.2639 11.7224 11.5263 11.7224 11.8499C11.7224 14.132 13.5791 15.9887 15.8612 15.9887C18.1434 15.9887 20 14.132 20 11.8499C20 11.5263 19.7377 11.2639 19.4141 11.2639ZM4.13883 14.8168C2.70332 14.8168 1.5027 13.7922 1.22996 12.4358H7.0477C6.77496 13.7922 5.57434 14.8168 4.13883 14.8168ZM5.78613 11.2639H2.49152L4.13883 7.2794L5.78613 11.2639ZM9.98555 6.30799C9.67543 6.30799 9.42316 6.05573 9.42316 5.74561C9.42316 5.43549 9.67543 5.18323 9.98555 5.18323C10.2956 5.18323 10.5479 5.43549 10.5479 5.74561C10.5479 6.05573 10.2957 6.30799 9.98555 6.30799ZM15.8612 7.2794L17.5085 11.2639H14.2139L15.8612 7.2794ZM15.8612 14.8168C14.4257 14.8168 13.225 13.7922 12.9523 12.4358H18.77C18.4973 13.7922 17.2966 14.8168 15.8612 14.8168Z" fill="#282739" />
    <path d="M18.7766 11.2639L15.08 12.7922L16.1019 15.2639H18.7766V11.2639ZM16.7349 6.32553L16.1956 2.36206L11.0571 3.06133L13.0384 7.85377L16.7349 6.32553ZM11.6177 5.15967L7.85429 6.51483L8.80665 9.15967H11.6177V5.15967ZM8.3534 5.15967V9.15967H11.1644L12.1168 6.5149L8.3534 5.15967ZM3.26512 6.32553L6.96166 7.85379L8.94296 3.06142L3.80455 2.36207L3.26512 6.32553ZM1.22344 11.2639V15.2639H3.89809L4.91998 12.7922L1.22344 11.2639ZM7.05418 11.2639L3.35762 12.7922L4.3795 15.2639H7.05418V11.2639ZM5.01504 6.33155V2.33155H-0.966991L1.31848 7.85977L5.01504 6.33155ZM8.3534 6.33155L12.1168 4.97639L11.1645 2.33155H8.3534V6.33155ZM11.6177 6.33155V2.33155H8.80665L7.85429 4.97639L11.6177 6.33155ZM14.985 6.33155L18.6816 7.85977L20.967 2.33155H14.985V6.33155ZM12.9459 11.2639V15.2639H15.6205L16.6424 12.7922L12.9459 11.2639ZM1.22996 12.4358V8.43581H-3.65441L-2.69155 13.2243L1.22996 12.4358ZM7.0477 12.4358L10.9692 13.2243L11.9321 8.43581H7.0477V12.4358ZM5.78613 11.2639V15.2639H11.7682L9.48268 9.73569L5.78613 11.2639ZM2.49152 11.2639L-1.20502 9.73568L-3.49054 15.2639H2.49152V11.2639ZM4.13883 7.2794L7.83538 5.75115L4.13883 -3.19012L0.44228 5.75115L4.13883 7.2794ZM15.8612 7.2794L19.5577 5.75115L15.8612 -3.19012L12.1646 5.75115L15.8612 7.2794ZM17.5085 11.2639V15.2639H23.4905L21.205 9.73569L17.5085 11.2639ZM14.2139 11.2639L10.5173 9.73569L8.2318 15.2639H14.2139V11.2639ZM12.9523 12.4358V8.43581H8.06793L9.0308 13.2243L12.9523 12.4358ZM18.77 12.4358L22.6915 13.2243L23.6544 8.43581H18.77V12.4358ZM19.4141 7.26393H18.7766V15.2639H19.4141V7.26393ZM22.4731 9.7357L20.4315 4.7973L13.0384 7.85377L15.08 12.7922L22.4731 9.7357ZM17.2743 10.289C19.5083 9.98499 21.2413 8.07734 21.2413 5.74561H13.2413C13.2413 4.007 14.5334 2.58826 16.1956 2.36206L17.2743 10.289ZM21.2413 5.74561C21.2413 3.21288 19.1881 1.15967 16.6554 1.15967V9.15967C14.7698 9.15967 13.2413 7.63116 13.2413 5.74561H21.2413ZM16.6554 1.15967H11.6177V9.15967H16.6554V1.15967ZM15.3812 3.80451C14.5889 1.60414 12.4809 0.0113525 9.98559 0.0113525V8.01135C8.99163 8.01135 8.16497 7.37763 7.85429 6.51483L15.3812 3.80451ZM9.98559 0.0113525C7.49022 0.0113525 5.38231 1.60417 4.58997 3.80444L12.1168 6.5149C11.8061 7.37768 10.9795 8.01135 9.98559 8.01135V0.0113525ZM8.3534 1.15967H3.34465V9.15967H8.3534V1.15967ZM3.34465 1.15967C0.811916 1.15967 -1.24129 3.21288 -1.24129 5.74561H6.75871C6.75871 7.63116 5.23019 9.15967 3.34465 9.15967V1.15967ZM-1.24129 5.74561C-1.24129 8.07758 0.492035 9.98499 2.72568 10.289L3.80455 2.36207C5.46648 2.58827 6.75871 4.00677 6.75871 5.74561H-1.24129ZM-0.431425 4.79727L-2.4731 9.73567L4.91998 12.7922L6.96166 7.85379L-0.431425 4.79727ZM1.22344 7.26393H0.585938V15.2639H1.22344V7.26393ZM0.585938 7.26393C-1.9468 7.26393 -4 9.31713 -4 11.8499H4C4 13.7354 2.47148 15.2639 0.585938 15.2639V7.26393ZM-4 11.8499C-4 16.3412 -0.352459 19.9887 4.13883 19.9887V11.9887C4.11514 11.9887 4.10112 11.9847 4.08983 11.9799C4.07582 11.9739 4.05865 11.9633 4.04204 11.9467C4.02542 11.93 4.01476 11.9129 4.00882 11.8989C4.00404 11.8876 4 11.8736 4 11.8499H-4ZM4.13883 19.9887C8.63012 19.9887 12.2777 16.3412 12.2777 11.8499H4.27766C4.27766 11.8736 4.27362 11.8876 4.26883 11.8989C4.2629 11.9129 4.25223 11.93 4.23562 11.9467C4.21901 11.9633 4.20183 11.9739 4.18783 11.9799C4.17654 11.9847 4.16251 11.9887 4.13883 11.9887V19.9887ZM12.2777 11.8499C12.2777 9.31713 10.2245 7.26393 7.69172 7.26393V15.2639C5.80617 15.2639 4.27766 13.7354 4.27766 11.8499H12.2777ZM7.69172 7.26393H7.05418V15.2639H7.69172V7.26393ZM10.7507 9.7357L8.71159 4.80332L1.31848 7.85977L3.35762 12.7922L10.7507 9.7357ZM5.01504 10.3315H8.3534V2.33155H5.01504V10.3315ZM4.58995 7.68671C5.38229 9.88714 7.49024 11.4799 9.98559 11.4799V3.47987C10.9795 3.47987 11.8061 4.11354 12.1168 4.97639L4.58995 7.68671ZM9.98559 11.4799C12.4809 11.4799 14.5889 9.88709 15.3812 7.68671L7.85429 4.97639C8.16497 4.11359 8.99163 3.47987 9.98559 3.47987V11.4799ZM11.6177 10.3315H14.985V2.33155H11.6177V10.3315ZM11.2884 4.80332L9.2493 9.7357L16.6424 12.7922L18.6816 7.85977L11.2884 4.80332ZM12.9459 7.26393H12.3083V15.2639H12.9459V7.26393ZM12.3083 7.26393C9.77559 7.26393 7.72238 9.31713 7.72238 11.8499H15.7224C15.7224 13.7354 14.1939 15.2639 12.3083 15.2639V7.26393ZM7.72238 11.8499C7.72238 16.3412 11.3699 19.9887 15.8612 19.9887V11.9887C15.8375 11.9887 15.8235 11.9847 15.8122 11.9799C15.7982 11.9739 15.781 11.9633 15.7644 11.9467C15.7478 11.93 15.7371 11.9129 15.7312 11.8989C15.7264 11.8876 15.7224 11.8736 15.7224 11.8499H7.72238ZM15.8612 19.9887C20.3525 19.9887 24 16.3411 24 11.8499H16C16 11.8736 15.996 11.8876 15.9912 11.8989C15.9852 11.9129 15.9746 11.9301 15.958 11.9467C15.9414 11.9633 15.9242 11.9739 15.9102 11.9799C15.8989 11.9847 15.8849 11.9887 15.8612 11.9887V19.9887ZM24 11.8499C24 9.31713 21.9468 7.26393 19.4141 7.26393V15.2639C17.5285 15.2639 16 13.7354 16 11.8499H24ZM4.13883 10.8168C4.64856 10.8168 5.05659 11.1754 5.15147 11.6473L-2.69155 13.2243C-2.0512 16.4089 0.758084 18.8168 4.13883 18.8168V10.8168ZM1.22996 16.4358H7.0477V8.43581H1.22996V16.4358ZM3.12619 11.6473C3.22107 11.1754 3.6291 10.8168 4.13883 10.8168V18.8168C7.51957 18.8168 10.3289 16.4089 10.9692 13.2243L3.12619 11.6473ZM5.78613 7.26393H2.49152V15.2639H5.78613V7.26393ZM6.18807 12.7922L7.83538 8.80764L0.44228 5.75115L-1.20502 9.73568L6.18807 12.7922ZM0.44228 8.80764L2.08958 12.7922L9.48268 9.73569L7.83538 5.75115L0.44228 8.80764ZM9.98555 2.30799C11.8846 2.30799 13.4232 3.84659 13.4232 5.74561H5.42316C5.42316 8.26487 7.46629 10.308 9.98555 10.308V2.30799ZM13.4232 5.74561C13.4232 7.64463 11.8846 9.18323 9.98555 9.18323V1.18323C7.46629 1.18323 5.42316 3.22636 5.42316 5.74561H13.4232ZM9.98555 9.18323C8.08667 9.18323 6.54793 7.64481 6.54793 5.74561H14.5479C14.5479 3.22618 12.5046 1.18323 9.98555 1.18323V9.18323ZM6.54793 5.74561C6.54793 3.84659 8.08653 2.30799 9.98555 2.30799V10.308C12.5048 10.308 14.5479 8.26487 14.5479 5.74561H6.54793ZM12.1646 8.80764L13.8119 12.7922L21.205 9.73569L19.5577 5.75115L12.1646 8.80764ZM17.5085 7.26393H14.2139V15.2639H17.5085V7.26393ZM17.9104 12.7922L19.5577 8.80764L12.1646 5.75115L10.5173 9.73569L17.9104 12.7922ZM15.8612 10.8168C16.3709 10.8168 16.7789 11.1754 16.8738 11.6473L9.0308 13.2243C9.67114 16.4089 12.4804 18.8168 15.8612 18.8168V10.8168ZM12.9523 16.4358H18.77V8.43581H12.9523V16.4358ZM14.8485 11.6473C14.9434 11.1754 15.3514 10.8168 15.8612 10.8168V18.8168C19.2418 18.8168 22.0512 16.4089 22.6915 13.2243L14.8485 11.6473Z" fill="#282739" mask="url(#path-1-inside-1_1_15994)" />
  </symbol>
  <symbol viewBox="0 0 20 20" xmlns="http://www.w3.org/2000/svg" id="heart">
    <path d="M17.9935 5.51496C17.7329 4.90541 17.357 4.35303 16.887 3.88876C16.4167 3.4231 15.8621 3.05305 15.2535 2.79873C14.6224 2.53397 13.9455 2.39845 13.2622 2.40004C12.3034 2.40004 11.3681 2.66518 10.5552 3.166C10.3607 3.28581 10.176 3.4174 10.001 3.56077C9.82594 3.4174 9.6412 3.28581 9.44673 3.166C8.63386 2.66518 7.69847 2.40004 6.73975 2.40004C6.0494 2.40004 5.38043 2.53359 4.74841 2.79873C4.13779 3.05405 3.58745 3.42132 3.11489 3.88876C2.64428 4.35251 2.26834 4.90501 2.00838 5.51496C1.73807 6.14934 1.6 6.823 1.6 7.51629C1.6 8.17031 1.73224 8.85182 1.99477 9.54512C2.21451 10.1245 2.52955 10.7255 2.9321 11.3324C3.56995 12.2928 4.44699 13.2944 5.536 14.3098C7.34066 15.993 9.1278 17.1557 9.20365 17.2028L9.66453 17.5013C9.86872 17.6329 10.1313 17.6329 10.3354 17.5013L10.7963 17.2028C10.8722 17.1537 12.6574 15.993 14.464 14.3098C15.553 13.2944 16.43 12.2928 17.0679 11.3324C17.4704 10.7255 17.7874 10.1245 18.0052 9.54512C18.2677 8.85182 18.4 8.17031 18.4 7.51629C18.4019 6.823 18.2639 6.14934 17.9935 5.51496ZM10.001 15.9478C10.001 15.9478 3.07795 11.4679 3.07795 7.51629C3.07795 5.51496 4.7173 3.89269 6.73975 3.89269C8.1613 3.89269 9.39422 4.69401 10.001 5.86456C10.6077 4.69401 11.8406 3.89269 13.2622 3.89269C15.2846 3.89269 16.924 5.51496 16.924 7.51629C16.924 11.4679 10.001 15.9478 10.001 15.9478Z" />
  </symbol>
  <symbol viewBox="0 0 16 14" fill="none" xmlns="http://www.w3.org/2000/svg" id="heart2">
    <path d="M1.65221 0.76799C3.75184 -0.631767 6.00455 0.162506 7.2051 0.941217C7.54845 0.788517 8.2858 0.571255 9.65234 0.267578C14.1523 -0.732422 14.1523 1.76758 15.1523 3.26758C15.9523 4.46758 14.819 6.76758 14.1523 7.76758L7.65221 13.7676L0.652208 7.26758C-0.0144587 5.76772 -0.747792 2.36799 1.65221 0.76799Z" fill="#6F73EE" />
  </symbol>
  <symbol viewBox="0 0 20 20" fill="none" xmlns="http://www.w3.org/2000/svg" id="cart">
    <g clip-path="url(#clip0_1_16000)">
      <path d="M19.1523 7.25427H15.0031L12.6756 1.92486C12.5461 1.62833 12.2007 1.49282 11.9042 1.62239C11.6076 1.75189 11.4722 2.09732 11.6017 2.39388L13.7244 7.25431H6.27561L8.39827 2.39388C8.52776 2.09732 8.39237 1.75193 8.09581 1.62239C7.79929 1.49282 7.45382 1.62825 7.32436 1.92486L4.99686 7.25427H0.847685C0.304911 7.25427 -0.0979012 7.74564 0.0208488 8.26286L2.20581 17.7797C2.29257 18.1576 2.63608 18.4261 3.03265 18.4261H16.9673C17.3639 18.4261 17.7074 18.1576 17.7942 17.7797L19.9791 8.26286C20.0979 7.74568 19.695 7.25427 19.1523 7.25427ZM5.1071 9.0513C5.02882 9.0513 4.94925 9.03552 4.87288 9.00216C4.57632 8.87267 4.44089 8.52728 4.57042 8.23068L5.01057 7.22278H6.28933L5.64432 8.69966C5.54819 8.91993 5.33296 9.0513 5.1071 9.0513ZM7.0703 15.3011C7.0703 15.6247 6.80796 15.8871 6.48436 15.8871C6.16077 15.8871 5.89843 15.6247 5.89843 15.3011V11.0043C5.89843 10.6807 6.16077 10.4183 6.48436 10.4183C6.80796 10.4183 7.0703 10.6807 7.0703 11.0043V15.3011ZM10.5859 15.3011C10.5859 15.6247 10.3236 15.8871 9.99999 15.8871C9.6764 15.8871 9.41405 15.6247 9.41405 15.3011V11.0043C9.41405 10.6807 9.6764 10.4183 9.99999 10.4183C10.3236 10.4183 10.5859 10.6807 10.5859 11.0043V15.3011ZM14.1016 15.3011C14.1016 15.6247 13.8392 15.8871 13.5156 15.8871C13.192 15.8871 12.9297 15.6247 12.9297 15.3011V11.0043C12.9297 10.6807 13.192 10.4183 13.5156 10.4183C13.8392 10.4183 14.1016 10.6807 14.1016 11.0043V15.3011ZM15.1271 9.00216C15.0507 9.03552 14.9712 9.0513 14.8929 9.0513C14.667 9.0513 14.4518 8.91997 14.3556 8.6997L13.7106 7.22282H14.9894L15.4295 8.23071C15.5591 8.52728 15.4236 8.87267 15.1271 9.00216Z" fill="#6F73EE" />
    </g>
    <defs>
      <clipPath id="clip0_1_16000">
        <rect width="20" height="20" fill="white" />
      </clipPath>
    </defs>
  </symbol>
  <symbol viewBox="0 0 20 20" fill="none" xmlns="http://www.w3.org/2000/svg" id="cart2">
    <g clip-path="url(#clip0_469_355)">
      <path d="M11.9042 1.62234C12.2007 1.49293 12.5463 1.62863 12.6757 1.92508L14.7646 6.70731H18.6161C19.0428 6.70737 19.439 6.89762 19.7031 7.22879C19.9622 7.554 20.0581 7.97238 19.9658 8.37625L17.9081 17.3606C17.7645 17.988 17.2095 18.4261 16.5585 18.4261H3.44135C2.79037 18.4261 2.23537 17.988 2.09174 17.3606L0.0341187 8.37625C-0.0581856 7.97239 0.0376428 7.55399 0.296814 7.22879C0.560867 6.89759 0.957098 6.70738 1.38373 6.70731H5.23529L7.32416 1.92508C7.45362 1.62855 7.79917 1.49294 8.09564 1.62234C8.39209 1.75183 8.52762 2.09734 8.39838 2.39383L6.51459 6.70731H13.4853L11.6015 2.39383C11.4722 2.09734 11.6078 1.75179 11.9042 1.62234ZM1.38373 7.87918C1.29075 7.87927 1.23656 7.92944 1.21283 7.95926C1.18723 7.99134 1.16058 8.04508 1.1767 8.11551L3.23334 17.0989C3.25392 17.1888 3.34185 17.2542 3.44135 17.2542H16.5585C16.6579 17.2542 16.7458 17.1896 16.7665 17.0999L18.8232 8.11551C18.8393 8.04513 18.8126 7.99137 18.787 7.95926C18.7633 7.92943 18.7092 7.87924 18.6161 7.87918H15.2763L15.4296 8.23074C15.5592 8.52731 15.4235 8.87274 15.1269 9.00223C15.0506 9.03558 14.9708 9.05203 14.8925 9.05203C14.6669 9.0519 14.4516 8.92044 14.3554 8.70047L13.997 7.87918H6.00287L5.64447 8.70047C5.54828 8.92041 5.33303 9.05193 5.10736 9.05203C5.02904 9.05203 4.94931 9.03559 4.87299 9.00223C4.57645 8.87268 4.44077 8.52729 4.57025 8.23074L4.72357 7.87918H1.38373Z" fill="#6F73EE" />
      <path d="M11.9042 1.62234C12.2007 1.49293 12.5463 1.62863 12.6757 1.92508L14.7646 6.70731H18.6161C19.0428 6.70737 19.439 6.89762 19.7031 7.22879C19.9622 7.554 20.0581 7.97238 19.9658 8.37625L17.9081 17.3606C17.7645 17.988 17.2095 18.4261 16.5585 18.4261H3.44135C2.79037 18.4261 2.23537 17.988 2.09174 17.3606L0.0341187 8.37625C-0.0581856 7.97239 0.0376428 7.55399 0.296814 7.22879C0.560867 6.89759 0.957098 6.70738 1.38373 6.70731H5.23529L7.32416 1.92508C7.45362 1.62855 7.79917 1.49294 8.09564 1.62234C8.39209 1.75183 8.52762 2.09734 8.39838 2.39383L6.51459 6.70731H13.4853L11.6015 2.39383C11.4722 2.09734 11.6078 1.75179 11.9042 1.62234ZM1.38373 7.87918C1.29075 7.87927 1.23656 7.92944 1.21283 7.95926C1.18723 7.99134 1.16058 8.04508 1.1767 8.11551L3.23334 17.0989C3.25392 17.1888 3.34185 17.2542 3.44135 17.2542H16.5585C16.6579 17.2542 16.7458 17.1896 16.7665 17.0999L18.8232 8.11551C18.8393 8.04513 18.8126 7.99137 18.787 7.95926C18.7633 7.92943 18.7092 7.87924 18.6161 7.87918H15.2763L15.4296 8.23074C15.5592 8.52731 15.4235 8.87274 15.1269 9.00223C15.0506 9.03558 14.9708 9.05203 14.8925 9.05203C14.6669 9.0519 14.4516 8.92044 14.3554 8.70047L13.997 7.87918H6.00287L5.64447 8.70047C5.54828 8.92041 5.33303 9.05193 5.10736 9.05203C5.02904 9.05203 4.94931 9.03559 4.87299 9.00223C4.57645 8.87268 4.44077 8.52729 4.57025 8.23074L4.72357 7.87918H1.38373Z" stroke="#6F73EE" />
      <path d="M6.48438 10.4188C6.80801 10.4188 7.07031 10.6812 7.07031 11.0048V15.3016C7.07031 15.6252 6.80797 15.8876 6.48438 15.8876C6.16078 15.8876 5.89844 15.6252 5.89844 15.3016V11.0048C5.89844 10.6812 6.16078 10.4188 6.48438 10.4188Z" fill="#6F73EE" />
      <path d="M6.48438 10.4188C6.80801 10.4188 7.07031 10.6812 7.07031 11.0048V15.3016C7.07031 15.6252 6.80797 15.8876 6.48438 15.8876C6.16078 15.8876 5.89844 15.6252 5.89844 15.3016V11.0048C5.89844 10.6812 6.16078 10.4188 6.48438 10.4188Z" stroke="#6F73EE" />
      <path d="M10 10.4188C10.3236 10.4188 10.5859 10.6812 10.5859 11.0048V15.3016C10.5859 15.6252 10.3236 15.8876 10 15.8876C9.67641 15.8876 9.41406 15.6252 9.41406 15.3016V11.0048C9.41406 10.6812 9.67641 10.4188 10 10.4188Z" fill="#6F73EE" />
      <path d="M10 10.4188C10.3236 10.4188 10.5859 10.6812 10.5859 11.0048V15.3016C10.5859 15.6252 10.3236 15.8876 10 15.8876C9.67641 15.8876 9.41406 15.6252 9.41406 15.3016V11.0048C9.41406 10.6812 9.67641 10.4188 10 10.4188Z" stroke="#6F73EE" />
      <path d="M13.5156 10.4188C13.8392 10.4188 14.1015 10.6812 14.1016 11.0048V15.3016C14.1016 15.6252 13.8392 15.8876 13.5156 15.8876C13.192 15.8876 12.9297 15.6252 12.9297 15.3016V11.0048C12.9297 10.6812 13.192 10.4188 13.5156 10.4188Z" fill="#6F73EE" />
      <path d="M13.5156 10.4188C13.8392 10.4188 14.1015 10.6812 14.1016 11.0048V15.3016C14.1016 15.6252 13.8392 15.8876 13.5156 15.8876C13.192 15.8876 12.9297 15.6252 12.9297 15.3016V11.0048C12.9297 10.6812 13.192 10.4188 13.5156 10.4188Z" stroke="#6F73EE" />
    </g>
    <defs>
      <clipPath id="clip0_469_355">
        <rect width="20" height="20" fill="white" />
      </clipPath>
    </defs>
  </symbol>
  <symbol viewBox="0 0 15 16" xmlns="http://www.w3.org/2000/svg" id="scooter">
    <path d="M12.2656 10.5047L9.64062 1.5203L11.4062 1.32967C11.7719 1.28905 12.0375 0.96092 11.9969 0.595295C11.9563 0.22967 11.6312 -0.0390795 11.2625 0.00467053L6.16562 0.554671C5.8 0.595295 5.53437 0.923421 5.575 1.28905C5.6125 1.62967 5.9 1.8828 6.2375 1.8828C6.2625 1.8828 6.28437 1.8828 6.30937 1.87967L8.29688 1.66717L10.9719 10.8422C10.4438 11.1515 10.0469 11.6515 9.87187 12.2453H4.77812C4.48438 11.2422 3.55 10.5047 2.4375 10.5047C1.09063 10.5047 0 11.5828 0 12.9109C0 14.239 1.09063 15.3172 2.4375 15.3172C3.55 15.3172 4.48438 14.5828 4.77812 13.5765H9.86875C10.1625 14.5797 11.0969 15.3172 12.2094 15.3172C13.5562 15.3172 14.6469 14.239 14.6469 12.9109C14.6469 11.5984 13.5875 10.5328 12.2656 10.5047Z" />
  </symbol>
  <symbol viewBox="0 0 16 16" fill="none" xmlns="http://www.w3.org/2000/svg" id="energy">
    <path d="M12.1998 0H6.19959L3.80035 8.63849H6.20448L4.16032 16H4.88044L11.8393 7.36114H8.31397L12.1998 0Z" fill="white" />
  </symbol>
  <symbol viewBox="0 0 22 22" fill="none" xmlns="http://www.w3.org/2000/svg" id="check">
    <path d="M15.0168 7.58398H14.0092C13.79 7.58398 13.5816 7.68926 13.4527 7.86973L10.0754 12.5533L8.54566 10.4307C8.41676 10.2523 8.21051 10.1449 7.98922 10.1449H6.9816C6.84195 10.1449 6.76031 10.3039 6.84195 10.4178L9.51891 14.1303C9.58215 14.2185 9.66552 14.2905 9.7621 14.3401C9.85868 14.3897 9.9657 14.4156 10.0743 14.4156C10.1829 14.4156 10.2899 14.3897 10.3865 14.3401C10.483 14.2905 10.5664 14.2185 10.6297 14.1303L15.1543 7.85684C15.2381 7.74297 15.1564 7.58398 15.0168 7.58398V7.58398Z" fill="#6F73EE" />
    <path d="M11 1.375C5.68477 1.375 1.375 5.68477 1.375 11C1.375 16.3152 5.68477 20.625 11 20.625C16.3152 20.625 20.625 16.3152 20.625 11C20.625 5.68477 16.3152 1.375 11 1.375ZM11 18.9922C6.58711 18.9922 3.00781 15.4129 3.00781 11C3.00781 6.58711 6.58711 3.00781 11 3.00781C15.4129 3.00781 18.9922 6.58711 18.9922 11C18.9922 15.4129 15.4129 18.9922 11 18.9922Z" fill="#6F73EE" />
  </symbol>
  <symbol viewBox="0 0 18 18" fill="none" xmlns="http://www.w3.org/2000/svg" id="battery">
    <path d="M16.5 3.75001V2.99999C16.5 2.58655 16.1638 2.25 15.75 2.25H13.5C13.0862 2.25 12.75 2.58655 12.75 2.99999V3.74998H12.5303L12.2198 3.43944C11.9407 3.16002 11.554 2.99999 11.1592 2.99999H6.84081C6.44604 2.99999 6.05932 3.16002 5.78025 3.43944L5.46971 3.74998H5.24999V2.99999C5.24999 2.58655 4.91382 2.25 4.5 2.25H2.25C1.83618 2.25 1.50001 2.58655 1.50001 2.99999V3.74998C0.673102 3.75001 0 4.42273 0 5.24999V14.25C0 15.0773 0.673102 15.75 1.50001 15.75H16.5C17.3269 15.75 18 15.0773 18 14.25V5.24999C18 4.42273 17.3269 3.75001 16.5 3.75001ZM4.12499 7.49999H2.62501C2.41773 7.49999 2.25 7.33226 2.25 7.12498C2.25 6.91773 2.41773 6.75 2.62501 6.75H4.12502C4.3323 6.75 4.50004 6.91773 4.50004 7.12501C4.5 7.33229 4.33227 7.49999 4.12499 7.49999ZM15.375 7.49999H15V7.875C15 8.08228 14.8322 8.25001 14.625 8.25001C14.4177 8.25001 14.25 8.08228 14.25 7.875V7.49999H13.8749C13.6677 7.49999 13.4999 7.33226 13.4999 7.12498C13.4999 6.9177 13.6677 6.74996 13.8749 6.74996H14.25V6.37495C14.25 6.16767 14.4177 5.99994 14.625 5.99994C14.8322 5.99994 15 6.16767 15 6.37495V6.75H15.375C15.5823 6.75 15.75 6.91773 15.75 7.12501C15.75 7.33229 15.5823 7.49999 15.375 7.49999Z" fill="#5D6C7B" />
  </symbol>
  <symbol viewBox="0 0 18 18" fill="none" xmlns="http://www.w3.org/2000/svg" id="speedometer">
    <path d="M8.47256 4.5644V1.23605C6.43975 1.35274 4.53344 2.14266 3.01184 3.49874L5.36506 5.85196C6.25065 5.11474 7.32597 4.66917 8.47256 4.5644Z" fill="#5D6C7B" />
    <path d="M4.61919 6.59759L2.266 4.24442C0.908759 5.76559 0.117849 7.67203 0.000427246 9.70533H3.32892C3.43438 8.5585 3.88087 7.48311 4.61919 6.59759Z" fill="#5D6C7B" />
    <path d="M14.671 9.70533H17.9995C17.8821 7.67203 17.0912 5.76559 15.7339 4.24442L13.3807 6.59759C14.1191 7.48307 14.5655 8.5585 14.671 9.70533Z" fill="#5D6C7B" />
    <path d="M14.6704 10.76C14.4959 12.676 13.4442 13.845 13.0266 14.2625C12.8203 14.4688 12.8203 14.8033 13.0266 15.0096L14.6267 16.6097C14.7298 16.7128 14.865 16.7644 15.0002 16.7644C15.1354 16.7644 15.2705 16.7128 15.3737 16.6097C16.9531 15.0305 17.874 12.9698 18 10.76H14.6704Z" fill="#5D6C7B" />
    <path d="M3.27189 13.7858C3.41919 13.5544 3.64215 13.2058 3.90962 12.7933C3.63544 12.2499 3.40358 11.5724 3.32965 10.76H0C0.126035 12.9698 1.04695 15.0305 2.62628 16.6097C2.72943 16.7129 2.8646 16.7644 2.99978 16.7644C3.13495 16.7644 3.27016 16.7128 3.37331 16.6097L3.92119 16.0618C3.76249 15.9854 3.61607 15.8821 3.48785 15.754C2.95952 15.2256 2.87068 14.4163 3.27189 13.7858Z" fill="#5D6C7B" />
    <path d="M9.52734 1.23605V4.5644C10.6739 4.66917 11.7493 5.1147 12.6348 5.85196L14.9881 3.49874C13.4665 2.14263 11.5601 1.35274 9.52734 1.23605Z" fill="#5D6C7B" />
    <path d="M7.82841 9.06992C7.01222 9.8861 4.45108 13.8972 4.16175 14.352C4.02903 14.5605 4.05899 14.8332 4.23375 15.008C4.40851 15.1827 4.68122 15.2127 4.88976 15.08C5.34444 14.7906 9.35564 12.2295 10.1718 11.4133C10.8179 10.7673 10.8179 9.71602 10.1718 9.06995C9.52576 8.42389 8.47448 8.42385 7.82841 9.06992Z" fill="#5D6C7B" />
  </symbol>
  <symbol viewBox="0 0 18 18" fill="none" xmlns="http://www.w3.org/2000/svg" id="power">
    <path d="M14.2233 0.260732C14.14 0.101188 13.9749 0 13.7948 0H6.72925C6.51557 0 6.32727 0.141421 6.26614 0.346092L3.74218 8.80412C3.69851 8.95043 3.72654 9.10792 3.81776 9.23032C3.90898 9.35277 4.0527 9.42405 4.20529 9.42405H8.16696L6.57097 17.4212C6.52452 17.6538 6.65367 17.8862 6.87586 17.9691C6.93126 17.9898 6.98841 18 7.04477 18C7.21428 18 7.37679 17.9106 7.46487 17.7559L13.689 6.82597C13.7741 6.67634 13.7733 6.49172 13.6868 6.34287C13.6003 6.19402 13.4412 6.10147 13.269 6.10147H10.4664L14.1912 0.760267C14.2942 0.612563 14.3066 0.420397 14.2233 0.260732Z" fill="#5D6C7B" />
  </symbol>
  <symbol viewBox="0 0 18 18" fill="none" xmlns="http://www.w3.org/2000/svg" id="timer">
    <g clip-path="url(#clip0_469_341)">
      <path d="M14.4526 5.35819L15.5303 4.28044L14.4698 3.21956L13.3169 4.3725C12.2636 3.62609 11.0346 3.16607 9.75007 3.0375V1.5H11.2501V0H6.75007V1.5H8.25007V3.0375C6.96557 3.16607 5.7365 3.62609 4.68325 4.3725L3.53031 3.21956L2.46982 4.28044L3.54757 5.35819C2.54155 6.42334 1.86955 7.75982 1.61454 9.20259C1.35953 10.6454 1.53269 12.1312 2.11264 13.4767C2.69258 14.8222 3.6539 15.9683 4.8779 16.7736C6.10189 17.5788 7.53493 18.008 9.00007 18.008C10.4652 18.008 11.8982 17.5788 13.1222 16.7736C14.3462 15.9683 15.3076 14.8222 15.8875 13.4767C16.4674 12.1312 16.6406 10.6454 16.3856 9.20259C16.1306 7.75982 15.4586 6.42334 14.4526 5.35819ZM9.00007 16.5C7.81338 16.5 6.65334 16.1481 5.66664 15.4888C4.67995 14.8295 3.91091 13.8925 3.45679 12.7961C3.00266 11.6997 2.88384 10.4933 3.11535 9.32946C3.34686 8.16557 3.91831 7.09647 4.75742 6.25736C5.59654 5.41824 6.66564 4.8468 7.82952 4.61529C8.99341 4.38378 10.1998 4.5026 11.2962 4.95672C12.3925 5.41085 13.3296 6.17988 13.9889 7.16658C14.6482 8.15327 15.0001 9.31331 15.0001 10.5C14.9983 12.0908 14.3656 13.6158 13.2407 14.7407C12.1159 15.8655 10.5908 16.4982 9.00007 16.5Z" fill="#5D6C7B" />
      <path d="M9 6.00015V10.5002H4.5C4.5 11.3902 4.76392 12.2602 5.25839 13.0002C5.75285 13.7402 6.45566 14.317 7.27792 14.6576C8.10019 14.9982 9.00499 15.0873 9.87791 14.9137C10.7508 14.7401 11.5526 14.3115 12.182 13.6821C12.8113 13.0528 13.2399 12.251 13.4135 11.3781C13.5872 10.5051 13.4981 9.60034 13.1575 8.77808C12.8169 7.95581 12.2401 7.25301 11.5001 6.75854C10.76 6.26407 9.89002 6.00015 9 6.00015Z" fill="#5D6C7B" />
    </g>
    <defs>
      <clipPath id="clip0_469_341">
        <rect width="18" height="18" fill="white" />
      </clipPath>
    </defs>
  </symbol>
  <symbol viewBox="0 0 7 12" fill="none" xmlns="http://www.w3.org/2000/svg" id="next">
    <path d="M6.0533 4.99263C6.3462 5.28553 6.3462 5.7604 6.0533 6.05329L1.28033 10.8263C0.987439 11.1192 0.512565 11.1192 0.219672 10.8263C-0.0732217 10.5334 -0.0732218 10.0585 0.219672 9.76561L4.46231 5.52296L0.219671 1.28032C-0.0732226 0.987431 -0.0732226 0.512557 0.219671 0.219664C0.512564 -0.0732294 0.987438 -0.0732295 1.28033 0.219664L6.0533 4.99263ZM4.52297 4.77296L5.52297 4.77296L5.52297 6.27296L4.52297 6.27296L4.52297 4.77296Z" fill="#6F73EE" />
  </symbol>
  <symbol viewBox="0 0 7 12" fill="none" xmlns="http://www.w3.org/2000/svg" id="prev">
    <path d="M0.21967 4.99263C-0.0732233 5.28553 -0.0732234 5.7604 0.21967 6.05329L4.99264 10.8263C5.28553 11.1192 5.76041 11.1192 6.0533 10.8263C6.34619 10.5334 6.34619 10.0585 6.0533 9.76561L1.81066 5.52296L6.0533 1.28032C6.34619 0.987431 6.34619 0.512557 6.0533 0.219664C5.76041 -0.0732294 5.28553 -0.0732295 4.99264 0.219664L0.21967 4.99263ZM1.75 4.77296L0.75 4.77296L0.75 6.27296L1.75 6.27296L1.75 4.77296Z" fill="#6F73EE" />
  </symbol>
  <symbol viewBox="0 0 25 25" fill="none" xmlns="http://www.w3.org/2000/svg" id="elektroscooter">
    <path d="M5 22.2453C6.65685 22.2453 8 20.9022 8 19.2453C8 17.5885 6.65685 16.2453 5 16.2453C3.34315 16.2453 2 17.5885 2 19.2453C2 20.9022 3.34315 22.2453 5 22.2453Z" fill="#6F73EE" />
    <path d="M4.38833 16.9626C3.12764 17.3004 2.37949 18.5963 2.71729 19.857C3.05509 21.1177 4.35093 21.8658 5.61163 21.528C6.87232 21.1902 7.62047 19.8944 7.28267 18.6337C6.94487 17.373 5.64903 16.6248 4.38833 16.9626Z" fill="#6F73EE" />
    <path d="M20.3333 22.2453C21.9902 22.2453 23.3333 20.9022 23.3333 19.2453C23.3333 17.5885 21.9902 16.2453 20.3333 16.2453C18.6765 16.2453 17.3333 17.5885 17.3333 19.2453C17.3333 20.9022 18.6765 22.2453 20.3333 22.2453Z" fill="#6F73EE" />
    <path d="M19.7217 16.9626C18.461 17.3004 17.7128 18.5963 18.0506 19.857C18.3884 21.1177 19.6843 21.8658 20.945 21.528C22.2057 21.1902 22.9538 19.8944 22.616 18.6337C22.2782 17.373 20.9824 16.6248 19.7217 16.9626Z" fill="#6F73EE" />
    <path d="M6.16666 12.7454C5.63332 12.2787 3.99999 12.1621 3.24999 12.1621C3.22221 12.1343 3.14999 11.9787 3.08332 11.5787C3.01666 11.1787 3.44444 11.1343 3.66666 11.1621C5.52777 11.2454 9.48332 11.4454 10.4167 11.5787C11.35 11.7121 11.6944 12.7454 11.75 13.2454C11.3055 13.4676 10.25 13.8954 9.58332 13.8287C8.74999 13.7454 8.16666 12.8287 7.74999 12.7454C8.28332 15.0787 9.05554 16.8287 10.0833 17.412H13.3333C13.3889 17.3843 13.7333 17.162 14.6667 16.4954C15.6 15.8287 16.3889 14.2176 16.6667 13.4954L16.1667 12.4121L16.75 12.1621L15.0833 7.41207L15.6667 7.07873C15.6944 6.91207 15.75 6.4954 15.75 6.16207C15.75 5.82873 15.4722 5.02318 15.3333 4.66207L15.0833 4.57873V3.82873L14.8333 3.32873C14.7778 3.27318 14.7167 3.11207 14.9167 2.91207C15.1167 2.71207 15.3333 2.93985 15.4167 3.07873L15.6667 3.57873H16.1667C16.3333 3.43985 16.7 3.1454 16.8333 3.07873C17 2.9954 17.1667 2.9954 17.25 3.07873C17.3167 3.1454 17.1667 3.27318 17.0833 3.32873C16.8888 3.41207 16.4667 3.62873 16.3333 3.82873C16.1667 4.07873 16.3333 4.35998 16.3333 4.54748C16.3333 4.69748 16.1111 4.85303 16 4.91207C16.0833 5.13428 16.2667 5.6954 16.3333 6.16207C16.4 6.62873 16.3611 6.96762 16.3333 7.07873C16.5278 7.57873 16.9833 8.7454 17.25 9.41207C17.25 8.67873 18.5833 8.66207 19.25 8.7454V11.1621C18.3167 11.1621 17.75 10.5509 17.5833 10.2454L18.0833 11.6621H18.5833V11.9954H18.25L19.0833 14.4121H19.5833V14.7454H19.25L21.0833 19.7453C21.1667 19.8843 21.2667 20.1787 21 20.2453C20.7333 20.312 20.5555 20.1065 20.5 19.9953L19.9167 18.7453L19.3333 18.4953L17.9167 14.9121H17.0833C16.95 16.9787 14.25 18.9398 12.9167 19.662H9.24999V18.4953L8.41666 18.162C6.41666 18.1065 2.36666 18.012 2.16666 18.0787C1.91666 18.162 1.74999 18.0787 1.66666 17.912C2.73332 15.6454 4.88887 15.6898 5.83332 15.9954L6.41666 14.9954H6.66666L7.16666 14.4954C7.05554 14.1065 6.69999 13.2121 6.16666 12.7454Z" fill="#6F73EE" />
  </symbol>
  <symbol viewBox="0 0 20 12" fill="none" xmlns="http://www.w3.org/2000/svg" id="brand">
    <path fill-rule="evenodd" clip-rule="evenodd" d="M0 5.60275V1.52802C0 1.01868 0.3056 0 1.52802 0H13.4127C13.6957 0 14.3974 0.135817 14.9407 0.679117L18.5061 4.24452C18.5411 4.28828 18.5816 4.33477 18.6249 4.3846C18.8617 4.65682 19.1852 5.0287 19.1852 5.60275C19.1852 6.17682 18.8617 6.54868 18.6249 6.82092C18.5816 6.87073 18.5411 6.91723 18.5061 6.961L14.9407 10.5264C14.3974 11.0697 13.6957 11.2055 13.4127 11.2055H1.52802C0.3056 11.2055 0 10.1869 0 9.67748V5.60275Z" fill="#6F73EE" />
    <path fill-rule="evenodd" clip-rule="evenodd" d="M1.68521 6.79754V4.19537H3.32086C3.76694 4.19537 3.98999 4.56711 3.98999 4.91407C3.98999 5.15524 3.87773 5.29539 3.79953 5.39301C3.78773 5.40774 3.77669 5.42151 3.76694 5.43451C3.77123 5.43771 3.77569 5.44101 3.78031 5.44444L3.78051 5.44457C3.88304 5.52041 4.06434 5.65447 4.06434 6.12842C4.06434 6.62407 3.64304 6.79754 3.19694 6.79754H1.68521ZM4.48564 6.79754V4.19537H5.92304C6.44348 4.19537 6.76564 4.59189 6.76564 5.08754C6.76564 5.58321 6.41869 5.80624 6.24521 5.85581L6.91434 6.79754H6.07173L5.45216 5.93016H5.20434V6.79754H4.48564ZM7.03826 6.79754H7.75694L7.93043 6.37624H9.09521L9.29348 6.79754H10.0369L8.92173 4.19537H8.12869L7.03826 6.79754ZM10.4335 4.19537V6.79754H11.2017V5.43451L12.2426 6.79754H12.9117V4.19537H12.1683V5.55842L11.053 4.19537H10.4335ZM13.4322 6.79754V4.19537H14.8447C15.2082 4.19537 15.9352 4.46799 15.9352 5.55842C15.9352 6.64886 15.0925 6.79754 14.8447 6.79754H13.4322ZM2.40391 4.74059V5.13711H3.07304C3.13913 5.13711 3.27129 5.09746 3.27129 4.93886C3.27129 4.78024 3.13913 4.74059 3.07304 4.74059H2.40391ZM5.22913 5.36016V4.79016H5.84869C5.91478 4.79016 6.04694 4.92894 6.04694 5.08754C6.04694 5.24616 5.91478 5.36016 5.84869 5.36016H5.22913ZM2.40391 6.17799V5.78146H3.07304C3.13913 5.78146 3.27129 5.82111 3.27129 5.97972C3.27129 6.13832 3.13913 6.17799 3.07304 6.17799H2.40391ZM8.87216 5.73189H8.25259L8.57478 4.98842L8.87216 5.73189ZM14.2252 4.79016V6.17799H14.7457C14.8447 6.17799 15.2414 6.05407 15.2414 5.45929C15.2414 4.86451 14.7952 4.79016 14.7457 4.79016H14.2252Z" fill="white" />
  </symbol>
  <symbol viewBox="0 0 25 25" fill="none" xmlns="http://www.w3.org/2000/svg" id="adult">
    <path d="M16.85 16.85C14.95 17.5333 14.8 15.9167 12.8833 15.8667C11.2333 15.8167 9.95001 17.2333 8.65001 17C8.05001 16.9 7.63335 15.7167 6.86668 15.2C6.18335 15.3333 7.21668 19.5 8.35001 19.4667C10.8167 19.4333 8.86668 21.6333 12.95 21.7C17.0333 21.75 14.4333 19.5167 17.1833 19.2333C18.4833 19.05 19.0167 15.4667 18.4333 15.0333C17.55 15.4 17.3333 16.6667 16.85 16.85ZM10.6167 18C10.6167 18 11.35 17.0833 12.5 17.0833C13.65 17.0833 14.6167 18 14.6167 18H10.6167Z" fill="#6F73EE" />
    <path d="M18.3834 7.38333C18.3834 7.38333 18.95 9.28333 19 11.15C19.0667 12.9167 18.6167 14.65 18.65 14.7167C19.2334 13.65 20.4334 14.15 20.6167 10.9167C20.8167 7.68333 18.9167 8.33333 18.3834 7.38333Z" fill="#6F73EE" />
    <path d="M6.20001 11C6.26667 9.13334 6.81667 7.23334 6.81667 7.23334C6.28334 8.18334 4.38334 7.51667 4.56667 10.75C4.75 14 5.95 13.5 6.55 14.5667C6.58334 14.5 6.13334 12.7667 6.20001 11Z" fill="#6F73EE" />
    <path d="M9.24999 5.46666C10.65 5.25 11.3667 6.55 12.9333 6.58333C14.5 6.61666 13.3667 5.56667 15.9167 5.7C16.3167 5.75 16.95 3.41667 12.6167 3.3C8.28332 3.2 8.98332 5.5 9.24999 5.46666Z" fill="#6F73EE" />
  </symbol>
  <symbol viewBox="0 0 25 25" fill="none" xmlns="http://www.w3.org/2000/svg" id="children">
    <path d="M6.59384 8.81847C6.18584 10.0425 6.9655 11.4897 6.9655 12.3397C6.54049 12.5522 5.59009 12.9338 5.59009 14.2523C5.59009 15.5707 6.54049 15.8673 6.9655 16.0373C7.2205 17.0148 7.83252 18.3427 8.24054 19.0567C8.75055 19.9492 10.1205 21.6665 12.4156 21.6665C14.7107 21.6665 15.8907 19.9492 16.5283 19.0567C17.0383 18.3427 17.6758 17.0148 17.9308 16.0373C18.3983 15.9523 19.3333 15.4763 19.3333 14.2523C19.3333 12.7222 18.3133 12.4672 17.9308 12.3397C17.9308 11.1922 18.4923 10.3485 18.2373 8.81847C18.5203 5.70617 14.4001 3.39822 10.91 3.39822C10.5275 3.39822 10.8639 4.54845 10.6089 4.80347C9.39805 6.01425 6.59384 5.48797 6.59384 8.81847Z" fill="#6F73EE" />
    <path d="M15.5272 17.6515H9.30396C9.57162 18.6218 10.4081 20.0605 12.4156 20.0605C14.4231 20.0605 15.3934 18.6218 15.5272 17.6515Z" fill="white" />
  </symbol>
  <symbol viewBox="0 0 25 25" fill="none" xmlns="http://www.w3.org/2000/svg" id="folding">
    <path d="M3.91686 17.654C5.53344 17.654 6.84394 16.3435 6.84394 14.7269C6.84394 13.1103 5.53344 11.7998 3.91686 11.7998C2.30028 11.7998 0.989777 13.1103 0.989777 14.7269C0.989777 16.3435 2.30028 17.654 3.91686 17.654Z" fill="#6F73EE" />
    <path d="M21.2397 17.856C22.8563 17.856 24.1668 16.5455 24.1668 14.9289C24.1668 13.3124 22.8563 12.0019 21.2397 12.0019C19.6231 12.0019 18.3126 13.3124 18.3126 14.9289C18.3126 16.5455 19.6231 17.856 21.2397 17.856Z" fill="#6F73EE" />
    <path d="M4.36323 14.0681C3.46789 14.1369 3.30144 14.4985 3.33014 14.6707C3.33014 15.0839 4.01886 15.1872 4.36323 15.1872H7.03204C7.44528 15.1872 7.60598 15.4168 7.63468 15.5316L16.0741 15.3594V15.1011C16.694 15.0323 17.3655 14.3837 17.6238 14.0681L19.69 11.2271C19.8227 11.2845 20.1118 11.4509 20.2065 11.6575C20.3248 11.9158 20.637 14.5846 20.723 14.8429C20.8092 15.1011 20.9813 15.5316 21.4118 15.4455C21.7562 15.3766 21.7848 14.9003 21.7562 14.6707C21.6127 13.6376 21.3257 11.537 21.3257 11.3992C21.7388 10.7794 21.5552 10.567 21.4118 10.5383L21.2395 8.9887L20.8952 8.81652L20.8092 8.29997L20.0343 8.38607L19.9482 7.26688L18.829 7.35298L18.743 7.61125C18.456 7.61125 17.7615 7.62847 17.2793 7.69733C16.7973 7.76622 16.5046 8.18518 16.4185 8.38607L2.64143 9.50525C2.64143 9.44785 2.55533 9.33307 2.21098 9.33307C1.78053 9.33307 1.60834 9.59133 1.60834 9.9357C1.60834 10.2801 1.78053 10.5383 2.21098 10.5383C2.55533 10.5383 2.69883 10.3088 2.72751 10.194L16.2463 9.16088V9.33307L19.4317 9.16088C19.4317 9.21827 19.4488 9.48802 19.5178 10.1079C19.0357 10.3834 17.3655 12.5184 16.5907 13.5515C12.3149 13.695 7.97904 13.7237 7.63468 13.7237C7.35919 12.0019 6.31463 11.3419 5.82678 11.2271L5.48241 10.7105C3.82948 10.2284 2.15358 11.141 1.52225 11.6575C1.52225 11.801 1.67721 12.1741 2.29706 11.8297C3.07188 11.3992 3.84669 10.7105 5.22414 11.3992C6.60159 12.088 6.77378 13.2358 6.77378 13.982C6.34333 13.982 5.25858 13.9992 4.36323 14.0681Z" fill="#6F73EE" />
  </symbol>
  <symbol viewBox="0 0 23 14" fill="none" xmlns="http://www.w3.org/2000/svg" id="electrobike">
    <path fill-rule="evenodd" clip-rule="evenodd" d="M3.8161 13.8333C5.92366 13.8333 7.63218 12.1248 7.63218 10.0172C7.63218 7.90967 5.92366 6.20115 3.8161 6.20115C1.70851 6.20115 0 7.90967 0 10.0172C0 12.1248 1.70851 13.8333 3.8161 13.8333ZM4.29855 11.267C4.16101 11.3172 4.01248 11.3445 3.85756 11.3445C3.64896 11.3445 3.45195 11.2948 3.27773 11.2067L2.83383 12.1952C2.68528 12.526 2.9273 12.9 3.28996 12.9H4.25926C4.62191 12.9 4.86395 12.526 4.71538 12.1952L4.29855 11.267ZM2.57676 10.1734C2.6066 10.511 2.76688 10.8111 3.00688 11.023L2.3588 11.921C2.14658 12.215 1.70168 12.1925 1.52035 11.8783L1.0357 11.039C0.854365 10.7248 1.05725 10.3283 1.41803 10.2915L2.57676 10.1734ZM3.04398 9.06293C2.80373 9.25945 2.6359 9.54122 2.58666 9.86205L1.41803 9.74298C1.05725 9.70622 0.854365 9.30963 1.0357 8.99555L1.52035 8.15612C1.70168 7.84205 2.14658 7.81943 2.3588 8.11352L3.04398 9.06293ZM4.26635 8.8392C4.13793 8.79618 4.00048 8.77287 3.85756 8.77287C3.66105 8.77287 3.47483 8.81695 3.30826 8.89577L2.83383 7.83925C2.68528 7.50842 2.9273 7.13443 3.28996 7.13443H4.25926C4.62191 7.13443 4.86395 7.50842 4.71538 7.83925L4.26635 8.8392ZM4.56271 8.98328L5.19041 8.11352C5.40265 7.81943 5.84755 7.84205 6.02886 8.15612L6.51352 8.99555C6.69485 9.30963 6.49198 9.70622 6.13118 9.74298L5.12581 9.84542C5.0657 9.48537 4.85598 9.17595 4.56271 8.98328ZM5.13678 10.1902L6.1312 10.2915C6.49198 10.3283 6.69485 10.7248 6.51352 11.039L6.02886 11.8783C5.84755 12.1925 5.40265 12.215 5.19041 11.921L4.6028 11.1067C4.89643 10.8975 5.09841 10.568 5.13678 10.1902Z" fill="#6F73EE" />
    <path fill-rule="evenodd" clip-rule="evenodd" d="M18.3172 13.8333C20.4248 13.8333 22.1333 12.1248 22.1333 10.0172C22.1333 7.90967 20.4248 6.20115 18.3172 6.20115C16.2097 6.20115 14.5012 7.90967 14.5012 10.0172C14.5012 12.1248 16.2097 13.8333 18.3172 13.8333ZM18.7997 11.267C18.6622 11.3172 18.5137 11.3445 18.3587 11.3445C18.1502 11.3445 17.9532 11.2948 17.7788 11.2067L17.335 12.1952C17.1865 12.526 17.4285 12.9 17.7912 12.9H18.7603C19.123 12.9 19.3652 12.526 19.2165 12.1952L18.7997 11.267ZM17.0778 10.1734C17.1078 10.511 17.268 10.8111 17.508 11.023L16.86 11.921C16.6477 12.215 16.2028 12.1925 16.0215 11.8783L15.5368 11.039C15.3555 10.7248 15.5583 10.3283 15.9192 10.2915L17.0778 10.1734ZM17.5452 9.06293C17.3048 9.25945 17.137 9.54122 17.0878 9.86205L15.9192 9.74298C15.5583 9.70622 15.3555 9.30963 15.5368 8.99555L16.0215 8.15612C16.2028 7.84205 16.6477 7.81943 16.86 8.11352L17.5452 9.06293ZM18.7675 8.8392C18.6392 8.79618 18.5017 8.77287 18.3587 8.77287C18.1622 8.77287 17.976 8.81695 17.8095 8.89577L17.335 7.83925C17.1865 7.50842 17.4285 7.13443 17.7912 7.13443H18.7603C19.123 7.13443 19.3652 7.50842 19.2165 7.83925L18.7675 8.8392ZM19.0638 8.98328L19.6915 8.11352C19.9038 7.81943 20.3487 7.84205 20.53 8.15612L21.0147 8.99555C21.196 9.30963 20.9932 9.70622 20.6323 9.74298L19.627 9.84542C19.5668 9.48537 19.3572 9.17595 19.0638 8.98328ZM19.638 10.1902L20.6323 10.2915C20.9932 10.3283 21.196 10.7248 21.0147 11.039L20.53 11.8783C20.3487 12.1925 19.9038 12.215 19.6915 11.921L19.104 11.1067C19.3977 10.8975 19.5995 10.568 19.638 10.1902Z" fill="#6F73EE" />
    <path d="M8.72933 10.6851C8.57668 10.7995 8.37951 10.6374 8.30001 10.542L9.11093 9.63563L9.01552 9.06322L4.10231 10.3035C3.95921 10.3512 3.65393 10.4084 3.57759 10.2558C3.50128 10.1031 3.83201 9.90593 4.00691 9.82643L7.96611 8.3954L9.34944 5.58103L8.34771 5.10402L8.49081 5.48563L8.10921 5.62873L7.20289 3.14828L5.91496 3.05287C5.83546 3.03697 5.66691 2.96702 5.62874 2.81437C5.58104 2.62357 5.77184 2.24195 6.10576 2.09885C6.43966 1.95575 7.01208 2.24195 7.39369 2.24195C7.77529 2.24195 8.15691 2.14655 8.63393 2.09885C9.01553 2.06068 9.26994 2.30555 9.34944 2.43277L8.96783 2.71897H8.20461C8.01381 2.71897 7.67989 3.00517 7.53679 3.14828L8.06151 4.2454L10.5897 4.48392L14.4535 2.52817C14.3422 2.27375 14.1196 1.74587 14.1196 1.66953C14.1196 1.57413 14.1196 1.43103 14.2627 1.38333C14.3771 1.34517 14.5012 1.36743 14.5489 1.38333C14.5966 1.33563 14.7015 1.22115 14.7397 1.14483C14.5107 1.03035 14.5807 0.779117 14.6443 0.667817C14.5807 0.445217 14.5298 0 14.8351 0C15.2167 0 15.0736 0.429317 15.1213 0.524717C15.1594 0.601033 15.2008 0.651917 15.2167 0.667817L15.6937 0.954016V0.858617H16.0277C16.0912 0.858617 16.2183 0.8777 16.2183 0.954016C16.2183 1.04943 16.0277 1.00172 15.9798 1.04943C15.9417 1.08758 15.964 1.16073 15.9798 1.19253L15.7413 1.28793C15.6937 1.25613 15.5697 1.18298 15.4552 1.14483C15.3407 1.10667 15.1849 1.12893 15.1213 1.14483V1.38333L15.2167 1.66953C15.2644 1.71725 15.3502 1.83172 15.312 1.90805C15.2739 1.98437 15.169 1.97165 15.1213 1.95575L15.0736 2.09885L16.6953 5.62873C16.7908 5.66053 17.0102 5.79092 17.1247 6.05805C17.2392 6.32517 17.3315 6.86897 17.3632 7.10747L18.4603 9.87413C18.5557 10.0649 18.7943 10.3512 18.5557 10.4943C18.3172 10.6374 18.1742 10.2558 18.0787 10.065L17.888 10.1603L15.3598 4.48392L15.2644 4.53162L15.0259 4.0069L14.4058 4.91322L13.3563 6.20115L13.6902 6.48735L11.6868 8.92012L11.3052 8.5862L10.7328 9.20632L10.3989 9.30172C10.4307 9.39713 10.437 9.64517 10.2081 9.87413C9.97909 10.1031 9.60384 10.0332 9.44484 9.96953C9.26994 10.1604 8.88196 10.5706 8.72933 10.6851Z" fill="#6F73EE" />
  </symbol>
  <symbol viewBox="0 0 25 25" fill="none" xmlns="http://www.w3.org/2000/svg" id="monowheel">
    <path d="M12.5 18.5131C15.8209 18.5131 18.5131 15.8209 18.5131 12.5C18.5131 9.17907 15.8209 6.48693 12.5 6.48693C9.17908 6.48693 6.48694 9.17907 6.48694 12.5C6.48694 15.8209 9.17908 18.5131 12.5 18.5131Z" fill="white" />
    <path d="M12.5 18.5131C15.8209 18.5131 18.5131 15.8209 18.5131 12.5C18.5131 9.17907 15.8209 6.48693 12.5 6.48693C9.17908 6.48693 6.48694 9.17907 6.48694 12.5C6.48694 15.8209 9.17908 18.5131 12.5 18.5131Z" fill="white" />
    <path fill-rule="evenodd" clip-rule="evenodd" d="M12.5 20.1667C16.7342 20.1667 20.1667 16.7342 20.1667 12.5C20.1667 8.26582 16.7342 4.83334 12.5 4.83334C8.26583 4.83334 4.83334 8.26582 4.83334 12.5C4.83334 16.7342 8.26583 20.1667 12.5 20.1667ZM12.5 18.513C15.8209 18.513 18.513 15.8209 18.513 12.5C18.513 9.17907 15.8209 6.48694 12.5 6.48694C9.17908 6.48694 6.48694 9.17907 6.48694 12.5C6.48694 15.8209 9.17908 18.513 12.5 18.513Z" fill="#6F73EE" />
    <path fill-rule="evenodd" clip-rule="evenodd" d="M12.4248 9.04248C14.3814 9.04248 16.0517 7.81697 16.71 6.09167C18.7923 7.4624 20.1667 9.8207 20.1667 12.5C20.1667 13.7439 19.8703 14.9187 19.3447 15.9575H5.65539C5.12959 14.9187 4.83334 13.7439 4.83334 12.5C4.83334 9.87205 6.15556 7.55293 8.17103 6.17158C8.84986 7.85468 10.4986 9.04248 12.4248 9.04248Z" fill="#6F73EE" />
    <path d="M15.732 13.2516H9.26799C8.81136 13.2516 8.44119 13.6218 8.44119 14.0784V14.0784C8.44119 14.5351 8.81136 14.9052 9.26799 14.9052H15.732C16.1887 14.9052 16.5588 14.5351 16.5588 14.0784C16.5588 13.6218 16.1887 13.2516 15.732 13.2516Z" fill="white" />
  </symbol>
  <symbol viewBox="0 0 25 25" fill="none" xmlns="http://www.w3.org/2000/svg" id="top_sales">
    <path d="M10.2303 10.692L2.66479 18.2575L3.89419 19.5815L10.2303 13.2453L12.5 15.515L20.1602 7.85487L21.3895 9.08427L22.3352 4.16667L17.4177 5.20694L18.647 6.43634L12.3109 12.7725L10.2303 10.692Z" fill="#6F73EE" />
    <path d="M8.43354 16.2715L5.50189 19.2032V21H8.43354V16.2715Z" fill="#6F73EE" />
    <path d="M9.37921 15.515V21H12.5V17.3118L10.0412 14.853L9.37921 15.515Z" fill="#6F73EE" />
    <path d="M13.2565 16.4607V21H16.1882V13.529L14.7224 14.9949L13.2565 16.4607Z" fill="#6F73EE" />
    <path d="M17.0393 12.7725V21H20.0655V9.74625L17.0393 12.7725Z" fill="#6F73EE" />
  </symbol>
  <symbol viewBox="0 0 25 25" fill="none" xmlns="http://www.w3.org/2000/svg" id="sale">
    <path d="M12.2663 21.5985C16.7365 21.5985 20.3604 17.9747 20.3604 13.5044C20.3604 9.03419 16.7365 5.41035 12.2663 5.41035C7.79608 5.41035 4.17224 9.03419 4.17224 13.5044C4.17224 17.9747 7.79608 21.5985 12.2663 21.5985Z" fill="#6F73EE" />
    <path fill-rule="evenodd" clip-rule="evenodd" d="M8.42508 12.6286H9.65451C9.65451 11.6391 9.29468 10.9194 8.21518 10.9194C7.13566 10.9194 6.71586 11.1713 6.71586 12.4187C6.70586 12.6286 6.76983 13.1144 7.10568 13.3783C7.44153 13.6422 8.02526 14.028 8.27515 14.1879C8.34511 14.2379 8.48506 14.3978 8.48506 14.6377C8.48506 14.6682 8.48536 14.6984 8.48568 14.7281C8.48836 14.9897 8.49061 15.2074 8.27515 15.2074C8.03526 15.2074 8.03526 14.9376 8.03526 14.6377V14.1879H6.83581C6.83581 15.3574 6.98573 16.0471 8.21518 16.0471C9.44461 16.0471 9.7145 15.7232 9.7145 14.1879C9.7045 13.998 9.56456 13.5462 9.08478 13.2583C8.605 12.9705 8.28515 12.7186 8.1852 12.6286C8.13521 12.5686 8.03526 12.3947 8.03526 12.1788C8.03526 11.9089 8.09521 11.759 8.21518 11.759C8.33513 11.759 8.42508 11.849 8.42508 12.1788V12.6286ZM9.83445 15.9871L10.5241 11.0393H12.2933L13.073 15.9871H11.7236V15.0575H11.2138V15.9871H9.83445ZM14.5423 11.0393H13.3128V15.9871H15.3519V14.9676H14.5423V11.0393ZM15.6518 11.0393V15.9871H17.8708V14.9676H16.9112V13.888H17.7208V12.9285H16.9112V11.9989H17.8708V11.0393H15.6518ZM11.2437 14.1279H11.7235L11.4836 12.4187L11.2437 14.1279Z" fill="white" />
  </symbol>
  <symbol viewBox="0 0 25 25" fill="none" xmlns="http://www.w3.org/2000/svg" id="quad_bike">
    <path d="M8.47261 18.6778L4.45746 16.0136L5.35804 14.8878H19.2421L20.0303 16.689L14.2514 19.4283L8.47261 18.6778Z" fill="#6F73EE" />
    <path d="M5.80843 16.1637H3.74457V15.6384C3.74457 15.0079 4.23238 14.8879 4.79525 14.8879L4.34497 14.4376V13.8747H4.00723V13.4994C5.83845 13.4994 7.69717 13.6996 8.39763 13.7996V14.0248C8.83543 14.1624 9.88362 14.4376 10.5741 14.4376C11.2645 14.4376 11.9875 14.0873 12.2627 13.9122L12.4128 14.1374C12.5629 13.9122 13.0432 13.4619 13.7637 13.4619C14.6643 13.4619 14.8144 13.5745 15.0771 13.6871C15.0771 13.3268 15.5774 13.1867 15.8275 13.1617L15.3022 12.4112L14.4767 12.1485V11.5857H13.8012C13.7262 11.5857 13.5761 11.5406 13.5761 11.3605C13.5761 11.1804 13.7262 11.1354 13.8012 11.1354H14.4767V10.535L13.9513 10.0096C13.9013 9.72194 13.9138 9.16908 14.3641 9.25914C14.8144 9.34919 14.9019 9.69693 14.8894 9.85954L14.8144 10.6851C14.8644 10.6225 15.0695 10.6175 15.4898 11.0979C15.9101 11.5782 15.8401 11.9984 15.7525 12.1485L16.3904 13.0867C17.0809 13.0867 17.4035 13.6495 17.4035 13.9497H19.0922C19.4224 13.9497 19.655 14.2124 19.655 14.4C20.1354 14.4 20.2555 14.9254 20.2555 15.2256C20.7959 15.2256 20.9685 15.3757 20.9685 15.6759V16.2387C21.056 16.3763 21.2762 16.689 21.4562 16.8392C21.4562 17.7698 20.6557 19.2282 20.2555 19.8412C20.1554 19.8037 19.9102 19.7135 19.7302 19.6535C19.9402 18.6928 19.8177 17.477 19.7302 16.9893L19.3924 16.4639L19.4675 16.0511C18.717 15.6609 18.5294 15.4883 16.8407 15.4883C15.1521 15.4883 14.6268 16.8392 14.6268 17.7022V20.1788C14.6268 20.8543 14.214 20.8543 13.9513 20.8543H10.1238V20.5542L6.0711 18.7528L9.14813 17.2895L7.79723 16.3513C7.31692 16.1712 6.3713 16.1637 5.80843 16.1637Z" fill="#6F73EE" />
    <path d="M6.29618 23.0682C8.14065 23.0682 9.63588 21.573 9.63588 19.7285C9.63588 17.884 8.14065 16.3888 6.29618 16.3888C4.45172 16.3888 2.95648 17.884 2.95648 19.7285C2.95648 21.573 4.45172 23.0682 6.29618 23.0682Z" fill="#6F73EE" />
    <path d="M6.33372 21.4922C7.32848 21.4922 8.1349 20.6858 8.1349 19.691C8.1349 18.6962 7.32848 17.8898 6.33372 17.8898C5.33895 17.8898 4.53253 18.6962 4.53253 19.691C4.53253 20.6858 5.33895 21.4922 6.33372 21.4922Z" fill="white" />
    <path d="M18.154 23.0682C19.9985 23.0682 21.4937 21.573 21.4937 19.7285C21.4937 17.884 19.9985 16.3888 18.154 16.3888C16.3096 16.3888 14.8143 17.884 14.8143 19.7285C14.8143 21.573 16.3096 23.0682 18.154 23.0682Z" fill="#6F73EE" />
    <path d="M18.1915 21.4922C19.1863 21.4922 19.9927 20.6858 19.9927 19.691C19.9927 18.6962 19.1863 17.8898 18.1915 17.8898C17.1967 17.8898 16.3903 18.6962 16.3903 19.691C16.3903 20.6858 17.1967 21.4922 18.1915 21.4922Z" fill="white" />
    <path fill-rule="evenodd" clip-rule="evenodd" d="M20.2472 1.88351C20.4375 1.88351 20.5917 2.03776 20.5917 2.22805V5.13186H21.4283C21.8362 5.13186 22.1667 5.4624 22.1667 5.87013C22.1667 6.27786 21.8362 6.60838 21.4283 6.60838H21.1823V9.51558C21.1823 9.97581 20.8092 10.3489 20.349 10.3489H19.312V11.9239H19.1152V13.1051H18.3277V11.9239H18.1308V10.3489H17.1923C16.7322 10.3489 16.359 9.97581 16.359 9.51558V6.60838H16.1129C15.7052 6.60838 15.3746 6.27786 15.3746 5.87013C15.3746 5.4624 15.7052 5.13186 16.1129 5.13186H17.048V2.22805C17.048 2.03776 17.2023 1.88351 17.3925 1.88351C17.5828 1.88351 17.7371 2.03776 17.7371 2.22805V5.13186H19.9027V2.22805C19.9027 2.03776 20.0568 1.88351 20.2472 1.88351Z" fill="#6F73EE" />
  </symbol>
  <symbol viewBox="0 0 22 13" fill="none" xmlns="http://www.w3.org/2000/svg" id="electromoped">
    <path fill-rule="evenodd" clip-rule="evenodd" d="M9.74138 8.21438C9.75382 8.18325 9.98188 7.63368 10.096 7.40795C10.1557 7.08558 10.0976 6.32945 9.45222 5.70617L9.18895 5.93492L9.37867 6.03243C9.41977 6.05355 9.42827 6.09873 9.39768 6.13335C9.3671 6.16797 9.309 6.17892 9.26792 6.1578L9.05713 6.04947L9.00692 6.0931L9.18932 6.18683C9.2304 6.20795 9.23892 6.25313 9.20833 6.28775C9.17773 6.32238 9.11963 6.33332 9.07855 6.3122L8.8751 6.20763L8.82495 6.2512L8.99995 6.34115C9.04103 6.36227 9.04955 6.40745 9.01897 6.44207C8.98838 6.47668 8.93027 6.48763 8.88918 6.46652L8.69313 6.36575L8.64313 6.4092L8.81097 6.49545C8.85205 6.51657 8.86057 6.56175 8.82998 6.59637C8.7994 6.631 8.74128 6.64195 8.7002 6.62082L8.5113 6.52373L8.4611 6.56737L8.6216 6.64985C8.6627 6.67097 8.6712 6.71617 8.64062 6.75078C8.61003 6.7854 8.55193 6.79635 8.51083 6.77523L8.32927 6.68192L8.27913 6.72548L8.43223 6.80417C8.47333 6.82528 8.48185 6.87047 8.45125 6.90508C8.42067 6.93972 8.36257 6.95065 8.32148 6.92953L8.1473 6.84002L7.88613 7.06697L8.44388 7.19385L9.74138 8.21438ZM7.59688 7.00117L7.26945 6.92667L6.61628 7.24552C6.00533 6.18105 4.85743 5.46407 3.54208 5.46407C1.58585 5.46407 0 7.04992 0 9.00615C0 10.9624 1.58585 12.5482 3.54208 12.5482C5.49832 12.5482 7.08415 10.9624 7.08415 9.00615C7.08415 8.76038 7.05912 8.52047 7.01148 8.2888C7.20563 8.24485 7.33192 8.21752 7.35885 8.21438C7.37133 8.21293 7.3852 8.21096 7.39993 8.20886C7.57758 8.18358 7.8801 8.14053 7.39182 8.78027C6.86303 9.47303 7.54152 10.5647 8.48618 10.303C9.24192 10.0936 9.26513 9.341 9.22997 8.99377H9.36462L9.30852 9.75673C9.80407 9.7399 10.9332 9.67258 11.4852 9.53795C12.1752 9.36965 12.826 8.6684 12.9157 8.48327C12.9875 8.33517 13.8582 6.03918 14.2846 4.9097L14.1163 4.72133C14.1745 4.60215 14.3332 4.33532 14.5018 4.22137C14.6703 4.10742 14.9716 4.03145 15.1011 4.00772L15.214 4.29258C15.118 4.3183 14.8756 4.41958 14.6739 4.61898C14.4721 4.8184 14.2416 5.33313 14.1516 5.56557H14.4365C14.5097 5.46172 14.7101 5.2089 14.9261 5.02848C15.1421 4.84807 15.384 4.74855 15.4778 4.72133L16.0463 6.03502C15.0753 6.66673 14.4334 7.76147 14.4334 9.00615C14.4334 10.9624 16.0191 12.5482 17.9755 12.5482C19.9316 12.5482 21.5175 10.9624 21.5175 9.00615C21.5175 7.04992 19.9316 5.46407 17.9755 5.46407C17.5221 5.46407 17.0886 5.54925 16.6901 5.70448L16.1798 4.55478L16.289 4.34712L16.8273 4.16858H18.0806C18.1583 4.18558 18.445 4.27862 18.9696 4.5147C19.4941 4.75078 19.6301 4.67622 19.6326 4.60943L18.3138 3.80062C18.173 3.7792 17.7468 3.73635 17.1698 3.73635C16.5926 3.73635 16.0793 3.83373 15.8948 3.88243L15.829 3.73635L15.9843 3.50633H16.1798L16.289 3.01177L16.1798 2.8795H16.0303L15.4666 1.64885L15.3345 1.5971L15.2681 1.0684C15.4005 1.08303 15.6653 1.06772 15.6653 0.889316C15.6653 0.710916 15.4005 0.693033 15.2681 0.706399L15.1421 0.593733C15.0886 0.4678 14.9573 0.21595 14.8598 0.21595C14.7622 0.21595 14.7104 0.262783 14.6967 0.2862C14.6658 0.25395 14.5846 0.167183 14.5072 0.0781329C14.4104 -0.0332005 14.2182 -0.0186338 14.1559 0.0781329C14.0936 0.1749 14.1069 0.280916 14.1559 0.340566C14.1952 0.388283 14.3578 0.535416 14.4343 0.603016C14.4087 0.632616 14.3783 0.714083 14.4621 0.80315C14.5459 0.892233 14.7091 0.897716 14.7802 0.889316V1.02958H14.3204C14.3204 1 14.2814 0.940849 14.1252 0.940849C13.9691 0.940849 13.9332 1 13.9348 1.02958H13.5498C13.5195 1.04667 13.4589 1.10857 13.4589 1.21962C13.4589 1.33068 13.5195 1.3849 13.5498 1.39812H13.9018C13.9497 1.50553 14.029 1.5171 14.1365 1.5171C14.2224 1.5171 14.2549 1.47193 14.2604 1.44935H14.619L14.5959 1.81127C14.5488 1.81127 14.4438 1.84498 14.4009 1.97983C14.3472 2.1484 14.3608 2.20755 14.4546 2.32627C14.5483 2.445 14.5327 2.47 14.1265 2.69808C13.8016 2.88055 13.1405 3.08175 12.8506 3.15955C12.9784 2.89893 12.8105 2.90895 12.6551 2.95407L12.6474 2.9563C12.4644 3.00957 11.3078 3.3462 9.63805 3.3462C8.28173 3.3462 6.83068 2.97497 6.2747 2.78935C6.02797 2.78542 5.51262 2.77988 5.42508 2.78935C5.33757 2.79882 5.3137 2.88205 5.31272 2.9225C5.29005 2.89292 5.22165 2.83437 5.12938 2.83673C5.03712 2.8391 3.85075 2.88568 3.26912 2.90867V3.0877L4.00083 3.55473H4.70147C4.86237 3.70003 5.4208 4.04047 6.36737 4.23973C7.55037 4.4888 8.2509 4.73785 9.27035 5.54707L8.95963 5.81707L8.8015 5.73578C8.7604 5.71467 8.7023 5.72562 8.67172 5.76023C8.64113 5.79485 8.64965 5.84003 8.69073 5.86115L8.8278 5.9316L8.7776 5.97523L8.61213 5.89018C8.57105 5.86907 8.51293 5.88002 8.48235 5.91463C8.45177 5.94927 8.46028 5.99445 8.50137 6.01557L8.64577 6.08978L8.59563 6.13335L8.42277 6.0445C8.38168 6.02338 8.32358 6.03433 8.29298 6.06895C8.2624 6.10357 8.27092 6.14875 8.312 6.16987L8.4638 6.24788L8.41382 6.29133L8.23378 6.19882C8.1927 6.1777 8.1346 6.18863 8.10402 6.22327C8.07342 6.25788 8.08193 6.30307 8.12302 6.32418L8.28198 6.40588L8.23177 6.4495L8.04443 6.35322C8.00333 6.3321 7.94523 6.34305 7.91465 6.37767C7.88407 6.41228 7.89257 6.45747 7.93367 6.47858L8.09995 6.56405L8.04982 6.60762L7.85507 6.50752C7.81397 6.4864 7.75587 6.49735 7.72528 6.53197C7.6947 6.5666 7.70322 6.61178 7.7443 6.6329L7.91798 6.72217L7.59688 7.00117ZM15.1958 9.00613C15.1958 8.07578 15.6528 7.25217 16.3546 6.7476L16.4491 6.96605C15.486 7.69103 15.1528 9.02425 15.7195 10.1352C16.3543 11.3799 17.8778 11.8744 19.1225 11.2396C20.3671 10.6047 20.8616 9.0812 20.2268 7.83653C19.6373 6.68052 18.281 6.17167 17.0936 6.6136L16.9998 6.40242C17.3035 6.28862 17.6321 6.22638 17.9755 6.22638C19.5108 6.22638 20.7553 7.47092 20.7553 9.00613C20.7553 10.5414 19.5108 11.7859 17.9755 11.7859C16.4403 11.7859 15.1958 10.5414 15.1958 9.00613ZM16.523 7.13643C16.3395 7.29398 16.1905 7.47217 16.0805 7.62412C15.9541 7.79837 16.0576 8.02815 16.267 8.07757L17.0056 8.25183L16.523 7.13643ZM17.7823 8.16528L17.1638 6.77175C17.4531 6.67812 17.7513 6.65397 17.9825 6.6541C18.1976 6.6542 18.323 6.87288 18.24 7.07142L17.7891 8.1502C17.787 8.1553 17.7846 8.16033 17.7823 8.16528ZM3.54215 6.22638C4.5564 6.22638 5.44377 6.76957 5.92923 7.5809L5.70372 7.69098C5.44012 7.25697 5.04368 6.89792 4.54165 6.68205C3.25807 6.13017 1.77013 6.72333 1.21825 8.00692C0.666367 9.2905 1.25952 10.7784 2.5431 11.3302C3.82668 11.8822 5.31462 11.2891 5.8665 10.0054C6.07607 9.51802 6.12053 9.00112 6.02475 8.5172C6.10813 8.49768 6.18953 8.47865 6.26833 8.46028C6.30348 8.63678 6.3219 8.8193 6.3219 9.00613C6.3219 10.5414 5.07737 11.7859 3.54215 11.7859C2.00695 11.7859 0.7624 10.5414 0.7624 9.00613C0.7624 7.47092 2.00695 6.22638 3.54215 6.22638ZM5.27947 8.69242C5.41537 8.66037 5.5505 8.62853 5.68285 8.59742C5.78352 8.63312 5.86078 8.72178 5.8689 8.84437C5.8889 9.14665 5.87487 9.56616 5.71417 9.9399C5.55348 10.3136 5.25868 10.6124 5.02555 10.8059C4.85993 10.9432 4.62387 10.8551 4.56083 10.6494L4.21837 9.53143C4.1706 9.37552 4.24267 9.20792 4.38868 9.13532L5.27947 8.69242ZM4.94387 8.06192L4.06803 8.33022C3.91212 8.37798 3.74453 8.30593 3.67193 8.15992L3.1514 7.11298C3.0556 6.9203 3.16625 6.6939 3.38097 6.67968C3.68325 6.65968 4.10277 6.67373 4.4765 6.83442C4.85023 6.9951 5.14903 7.2899 5.34247 7.52305C5.4288 7.62708 5.42608 7.75895 5.36112 7.85823L4.94387 8.06192ZM3.41365 9.85245C3.34105 9.70643 3.17347 9.63438 3.01753 9.68215L1.89963 10.0246C1.69388 10.0876 1.6057 10.3237 1.7431 10.4892C1.93655 10.7224 2.23535 11.0172 2.60908 11.1779C2.98282 11.3386 3.40232 11.3527 3.7046 11.3327C3.91932 11.3184 4.02998 11.0921 3.93418 10.8994L3.41365 9.85245ZM2.69652 8.87705L1.6496 9.39757C1.4569 9.49337 1.2305 9.38272 1.2163 9.168C1.1963 8.86572 1.21033 8.4462 1.37102 8.07247C1.53172 7.69873 1.82652 7.39995 2.05965 7.2065C2.22527 7.06908 2.46133 7.15727 2.52435 7.36302L2.86683 8.48093C2.9146 8.63685 2.84253 8.80445 2.69652 8.87705ZM18.882 7.27973L18.6135 8.41766C18.5761 8.57638 18.659 8.73888 18.8095 8.80177L19.8881 9.25262C20.0868 9.33558 20.3055 9.21033 20.3055 8.99515C20.3056 8.6922 20.2641 8.27452 20.0793 7.91212C19.8945 7.5497 19.5808 7.27087 19.3355 7.0931C19.1613 6.96683 18.9315 7.0703 18.882 7.27973ZM17.3335 9.55463C17.3708 9.39591 17.288 9.2334 17.1375 9.17052L16.0588 8.71968C15.8601 8.6367 15.6415 8.76195 15.6415 8.97715C15.6413 9.28008 15.6828 9.69778 15.8676 10.0602C16.0525 10.4226 16.3661 10.7014 16.6115 10.8792C16.7856 11.0054 17.0155 10.9021 17.065 10.6926L17.3335 9.55463ZM18.5416 9.62597C18.383 9.58852 18.2205 9.6714 18.1575 9.82185L17.7066 10.9006C17.6238 11.0992 17.749 11.3179 17.9641 11.3179C18.2671 11.3181 18.6848 11.2766 19.0471 11.0917C19.4096 10.9069 19.6885 10.5932 19.8663 10.3479C19.9925 10.1737 19.889 9.9439 19.6796 9.89448L18.5416 9.62597Z" fill="#6F73EE" />
  </symbol>
  <symbol viewBox="0 0 25 25" fill="none" xmlns="http://www.w3.org/2000/svg" id="buggy">
    <path fill-rule="evenodd" clip-rule="evenodd" d="M8.12277 15.5809H10.0577L10.7027 16.5484C14.5367 16.2617 22.2047 15.1294 22.2047 12.8935C20.8718 11.9045 15.7371 7.71578 13.3363 5.74502H14.6263V5.31503H8.01527C7.51362 5.31503 6.51032 5.61602 6.51032 6.81998V9.50738H2.58672C2.4434 9.50738 2.15674 9.59337 2.15674 9.93737V10.5823C2.15674 10.7436 4.09167 11.6573 4.30665 11.6573C4.47865 11.6573 4.80831 12.1231 4.95164 12.356L4.03792 13.216V14.3447L8.12277 15.5809ZM11.6891 11.6103C12.4252 11.7157 13.1961 11.9081 13.4544 12.3261L14.3982 12.0809L13.3901 10.1523L11.6891 11.6103ZM9.14279 9.52478C8.90024 9.40317 8.62216 9.30523 8.45224 9.25527C8.47016 9.21943 8.52749 9.12627 8.61349 9.04027C8.72099 8.93278 8.82847 7.75032 8.72099 7.53533C8.61349 7.32033 8.29101 7.42783 8.12977 7.53533C7.96852 7.64283 7.69979 8.71778 7.75352 9.04027C7.79652 9.29827 8.02227 9.3986 8.12977 9.41652L7.96607 9.53928L7.53154 8.9699V7.14247C7.53154 6.65873 7.53154 6.0675 8.60651 6.0675H8.70761L9.14279 9.52478ZM10.8715 11.5182C10.8391 11.5152 10.8073 11.5123 10.7763 11.5094C10.4106 11.4756 10.1493 11.4515 10.1184 11.4052C10.0739 11.3384 10.0109 11.1148 9.93716 10.8529C9.85269 10.553 9.75404 10.2028 9.65271 9.9801L9.13957 6.0675H12.9601L13.0505 6.1408L14.3575 8.7549L10.8715 11.5182ZM13.9183 6.84445L14.9488 8.8624L13.7663 9.82987L14.8977 11.9512L15.153 11.8848L15.8625 11.2273L15.4862 10.5823L15.2736 10.476L15.0881 11.2607C15.0547 11.402 14.913 11.4896 14.7716 11.4562C14.6303 11.4227 14.5428 11.281 14.5762 11.1397L15.0688 9.05523C15.1022 8.91385 15.2439 8.82633 15.3853 8.85975C15.5266 8.89315 15.6142 9.03485 15.5808 9.17622L15.3815 10.0193L15.6475 10.1523L16.0775 9.56112C16.7655 9.7107 18.043 10.1875 18.4962 11.0165L18.9262 10.9048L13.9183 6.84445Z" fill="#6F73EE" />
    <path fill-rule="evenodd" clip-rule="evenodd" d="M4.92666 11.1807C4.90631 11.2163 4.89278 11.2586 4.88866 11.3078C4.86288 11.6161 4.43653 11.6747 4.32851 11.3848C4.31115 11.3382 4.28645 11.3008 4.257 11.272C4.09268 11.3078 3.93188 11.3529 3.77515 11.4068C3.76486 11.4468 3.76313 11.4916 3.77253 11.5405C3.83088 11.8444 3.43616 12.0158 3.25391 11.7658C3.22465 11.7256 3.19081 11.6964 3.1547 11.6766C3.00681 11.7553 2.86403 11.8424 2.72703 11.9372C2.72806 11.9782 2.7385 12.0215 2.76058 12.0658C2.89875 12.3427 2.56491 12.6142 2.32196 12.4226C2.28328 12.3921 2.24315 12.3731 2.20336 12.3637C2.08231 12.4791 1.96798 12.6015 1.86098 12.7302C1.87305 12.7693 1.89475 12.8081 1.92786 12.8446C2.1356 13.0739 1.88743 13.4255 1.6018 13.3066C1.55602 13.2875 1.51198 13.2801 1.47092 13.2819C1.38579 13.4248 1.3087 13.5731 1.24026 13.7261C1.26247 13.7609 1.29402 13.7927 1.33616 13.8192C1.59806 13.984 1.45394 14.3895 1.14681 14.352C1.09739 14.346 1.05283 14.3507 1.01367 14.3637C0.970725 14.5236 0.936754 14.6872 0.912324 14.8539C0.943014 14.8812 0.981839 14.9032 1.02934 14.9173C1.32597 15.0053 1.2966 15.4346 0.990749 15.4814C0.942045 15.4889 0.900775 15.5052 0.86676 15.5279C0.868434 15.6971 0.879857 15.864 0.900499 16.0281C0.93739 16.046 0.980667 16.0567 1.03015 16.0575C1.33953 16.0622 1.42708 16.4835 1.14519 16.6111C1.09982 16.6316 1.06421 16.6588 1.03747 16.6903C1.08435 16.8515 1.1404 17.0088 1.205 17.1617C1.24557 17.1692 1.29039 17.1678 1.33855 17.1552C1.63772 17.0762 1.8357 17.4583 1.59868 17.6572C1.56073 17.689 1.53387 17.7247 1.5166 17.7618C1.60521 17.904 1.70188 18.0407 1.80595 18.171C1.8467 18.1672 1.8891 18.1538 1.93165 18.1288C2.19843 17.9722 2.49216 18.2867 2.31758 18.5422C2.28978 18.5828 2.27356 18.6242 2.26691 18.6645C2.39013 18.7773 2.51991 18.883 2.65565 18.9812C2.6939 18.9663 2.7312 18.942 2.76548 18.9065C2.98008 18.6835 3.34776 18.9072 3.2486 19.2003C3.23265 19.2473 3.22825 19.2918 3.23293 19.3328C3.38115 19.4078 3.53428 19.4747 3.69173 19.5323C3.72493 19.5078 3.75458 19.4742 3.77818 19.4303C3.92468 19.1578 4.33906 19.2738 4.32265 19.5828C4.32 19.6325 4.32776 19.6765 4.34328 19.7147C4.50566 19.7465 4.6713 19.7692 4.83966 19.7822C4.86468 19.7498 4.88386 19.7097 4.89465 19.6615C4.9622 19.3595 5.39253 19.3595 5.46008 19.6615C5.47086 19.7097 5.49006 19.7498 5.51508 19.7822C5.68343 19.7692 5.84906 19.7465 6.01145 19.7147C6.02696 19.6765 6.03473 19.6325 6.0321 19.5828C6.01566 19.2738 6.43005 19.1578 6.57655 19.4303C6.60016 19.4742 6.6298 19.5078 6.66301 19.5323C6.82045 19.4747 6.97358 19.4078 7.1218 19.3328C7.12648 19.292 7.12208 19.2473 7.10615 19.2003C7.00696 18.9072 7.37466 18.6835 7.58926 18.9065C7.62355 18.9422 7.66085 18.9663 7.69911 18.9812C7.83483 18.883 7.96461 18.7773 8.08781 18.6645C8.08118 18.6242 8.06496 18.5828 8.03715 18.5422C7.86256 18.2867 8.1563 17.9722 8.42308 18.1288C8.46565 18.1538 8.50806 18.1672 8.54883 18.171C8.6529 18.0407 8.74955 17.904 8.83815 17.762C8.82088 17.7247 8.79401 17.689 8.75605 17.6572C8.51903 17.4583 8.71701 17.0762 9.01618 17.1552C9.06436 17.1678 9.1092 17.1692 9.14978 17.1617C9.21438 17.0088 9.27041 16.8515 9.3173 16.6903C9.29055 16.6589 9.25493 16.6316 9.20955 16.6111C8.92765 16.4835 9.0152 16.0622 9.32458 16.0575C9.37408 16.0567 9.41738 16.046 9.45428 16.028C9.47491 15.864 9.48635 15.6971 9.48801 15.5279C9.454 15.5052 9.41271 15.4889 9.36398 15.4814C9.05813 15.4346 9.02876 15.0053 9.3254 14.9173C9.37291 14.9032 9.41175 14.8812 9.44245 14.8539C9.41801 14.6872 9.38405 14.5236 9.34111 14.3637C9.30195 14.3507 9.25736 14.346 9.20793 14.352C8.9008 14.3895 8.75668 13.984 9.01856 13.8192C9.06073 13.7927 9.0923 13.7608 9.1145 13.7261C9.04606 13.5731 8.96898 13.4248 8.88386 13.2819C8.84278 13.28 8.79873 13.2875 8.75293 13.3066C8.4673 13.4255 8.21913 13.0739 8.42686 12.8446C8.45998 12.808 8.4817 12.7693 8.49376 12.7301C8.38678 12.6015 8.27245 12.4791 8.1514 12.3637C8.11161 12.3731 8.07146 12.3921 8.03276 12.4226C7.78981 12.6142 7.456 12.3427 7.59415 12.0658C7.61625 12.0215 7.62668 11.9782 7.6277 11.9372C7.4907 11.8424 7.34795 11.7553 7.20005 11.6766C7.16393 11.6964 7.1301 11.7256 7.10081 11.7658C6.91858 12.0158 6.52386 11.8444 6.5822 11.5405C6.5916 11.4916 6.58986 11.4467 6.57958 11.4068C6.42286 11.3529 6.26205 11.3078 6.09775 11.272C6.06828 11.3008 6.04358 11.3382 6.02623 11.3848C5.9182 11.6747 5.49186 11.6161 5.46606 11.3078C5.46195 11.2586 5.44841 11.2163 5.42806 11.1807C5.34511 11.176 5.26153 11.1736 5.1774 11.1736C5.09323 11.1736 5.00963 11.176 4.92666 11.1807Z" fill="#6F73EE" />
    <path d="M5.30813 17.6594C6.55116 17.6594 7.55883 16.6517 7.55883 15.4087C7.55883 14.1657 6.55116 13.158 5.30813 13.158C4.06511 13.158 3.05743 14.1657 3.05743 15.4087C3.05743 16.6517 4.06511 17.6594 5.30813 17.6594Z" fill="white" />
    <path fill-rule="evenodd" clip-rule="evenodd" d="M19.4386 11.1807C19.4183 11.2163 19.4048 11.2586 19.4006 11.3078C19.3748 11.6161 18.9485 11.6747 18.8405 11.3848C18.8231 11.3382 18.7985 11.3008 18.769 11.272C18.6046 11.3078 18.4438 11.3529 18.2871 11.4068C18.2768 11.4468 18.2751 11.4916 18.2845 11.5405C18.3428 11.8444 17.9481 12.0158 17.7658 11.7658C17.7366 11.7256 17.7028 11.6964 17.6666 11.6766C17.5188 11.7553 17.376 11.8424 17.239 11.9372C17.24 11.9782 17.2505 12.0215 17.2725 12.0658C17.4106 12.3427 17.077 12.6142 16.834 12.4226C16.7953 12.3921 16.7551 12.3731 16.7153 12.3637C16.5943 12.4791 16.4799 12.6015 16.373 12.7302C16.385 12.7693 16.4067 12.8081 16.4398 12.8446C16.6476 13.0739 16.3994 13.4255 16.1138 13.3066C16.068 13.2875 16.0239 13.28 15.9829 13.2819C15.8978 13.4248 15.8207 13.5731 15.7522 13.7261C15.7744 13.7609 15.806 13.7927 15.8481 13.8192C16.11 13.984 15.9659 14.3895 15.6588 14.352C15.6094 14.346 15.5648 14.3507 15.5256 14.3637C15.4827 14.5236 15.4487 14.6872 15.4243 14.8539C15.455 14.8812 15.4938 14.9032 15.5413 14.9173C15.8379 15.0053 15.8086 15.4346 15.5027 15.4814C15.454 15.4889 15.4127 15.5052 15.3787 15.5279C15.3804 15.6971 15.3918 15.864 15.4125 16.0281C15.4494 16.046 15.4926 16.0567 15.5421 16.0575C15.8515 16.0622 15.9391 16.4835 15.6572 16.6111C15.6118 16.6316 15.5762 16.6589 15.5494 16.6903C15.5963 16.8515 15.6524 17.0088 15.717 17.1617C15.7575 17.1692 15.8024 17.1678 15.8505 17.1552C16.1497 17.0762 16.3477 17.4583 16.1107 17.6572C16.0727 17.689 16.0458 17.7247 16.0286 17.762C16.1172 17.904 16.2138 18.0407 16.3179 18.171C16.3587 18.1672 16.4011 18.1538 16.4436 18.1288C16.7105 17.9722 17.0041 18.2867 16.8296 18.5422C16.8018 18.5828 16.7855 18.6242 16.779 18.6645C16.9021 18.7773 17.0318 18.883 17.1676 18.9812C17.2058 18.9663 17.2431 18.942 17.2775 18.9065C17.492 18.6835 17.8598 18.9072 17.7606 19.2003C17.7446 19.2473 17.7403 19.292 17.745 19.3328C17.8931 19.4078 18.0463 19.4747 18.2036 19.5323C18.237 19.5078 18.2665 19.4742 18.2901 19.4303C18.4366 19.1578 18.851 19.2738 18.8346 19.5828C18.832 19.6325 18.8398 19.6765 18.8553 19.7147C19.0176 19.7465 19.1833 19.7692 19.3516 19.7822C19.3766 19.7498 19.3958 19.7097 19.4066 19.6615C19.4741 19.3595 19.9045 19.3595 19.9721 19.6615C19.9828 19.7097 20.002 19.7498 20.027 19.7822C20.1955 19.7692 20.361 19.7465 20.5235 19.7147C20.539 19.6765 20.5466 19.6325 20.5441 19.5828C20.5276 19.2738 20.942 19.1578 21.0885 19.4303C21.1121 19.4742 21.1418 19.5078 21.175 19.5323C21.3325 19.4747 21.4856 19.4078 21.6338 19.3328C21.6385 19.292 21.6341 19.2473 21.6181 19.2003C21.519 18.9072 21.8866 18.6835 22.1013 18.9065C22.1355 18.9422 22.1728 18.9663 22.2111 18.9812C22.3468 18.883 22.4766 18.7773 22.5998 18.6645C22.5931 18.6242 22.577 18.5828 22.5491 18.5422C22.3745 18.2867 22.6683 17.9722 22.9351 18.1288C22.9776 18.1538 23.02 18.1672 23.0608 18.171C23.1648 18.0407 23.2615 17.904 23.3501 17.762C23.3328 17.7247 23.306 17.689 23.268 17.6572C23.031 17.4583 23.229 17.0762 23.5281 17.1552C23.5763 17.1678 23.6211 17.1692 23.6618 17.1617C23.7263 17.0088 23.7823 16.8515 23.8293 16.6903C23.8025 16.6589 23.767 16.6316 23.7215 16.6111C23.4396 16.4835 23.5271 16.0622 23.8365 16.0575C23.886 16.0567 23.9293 16.046 23.9663 16.0281C23.9868 15.864 23.9983 15.6971 24 15.5279C23.966 15.5052 23.9246 15.4889 23.876 15.4814C23.5701 15.4346 23.5408 15.0053 23.8373 14.9173C23.8848 14.9032 23.9236 14.8812 23.9545 14.8539C23.93 14.6872 23.896 14.5236 23.8531 14.3637C23.814 14.3507 23.7693 14.346 23.72 14.352C23.4128 14.3895 23.2686 13.984 23.5305 13.8192C23.5726 13.7927 23.6043 13.7609 23.6265 13.7261C23.558 13.5731 23.481 13.4248 23.3958 13.2819C23.3548 13.28 23.3106 13.2875 23.265 13.3066C22.9793 13.4255 22.7311 13.0739 22.9388 12.8446C22.972 12.8081 22.9936 12.7693 23.0058 12.7302C22.8988 12.6015 22.7845 12.4791 22.6633 12.3637C22.6236 12.3731 22.5835 12.3921 22.5448 12.4226C22.3018 12.6142 21.968 12.3427 22.1061 12.0658C22.1281 12.0215 22.1386 11.9782 22.1396 11.9372C22.0026 11.8424 21.86 11.7553 21.712 11.6766C21.676 11.6964 21.6421 11.7256 21.6128 11.7658C21.4305 12.0158 21.0358 11.8444 21.0941 11.5405C21.1036 11.4916 21.1018 11.4467 21.0916 11.4068C20.9348 11.3529 20.774 11.3078 20.6096 11.272C20.5803 11.3008 20.5556 11.3382 20.5381 11.3848C20.4301 11.6747 20.0038 11.6161 19.978 11.3078C19.974 11.2586 19.9603 11.2163 19.94 11.1807C19.8571 11.176 19.7735 11.1736 19.6893 11.1736C19.6051 11.1736 19.5216 11.176 19.4386 11.1807Z" fill="#6F73EE" />
    <path d="M19.82 17.6594C21.063 17.6594 22.0707 16.6517 22.0707 15.4087C22.0707 14.1657 21.063 13.158 19.82 13.158C18.5769 13.158 17.5693 14.1657 17.5693 15.4087C17.5693 16.6517 18.5769 17.6594 19.82 17.6594Z" fill="white" />
  </symbol>
  <symbol viewBox="0 0 25 25" fill="none" xmlns="http://www.w3.org/2000/svg" id="services">
    <path fill-rule="evenodd" clip-rule="evenodd" d="M12.0296 10.3211L8.53383 6.8253L7.51066 4.60843L5.20853 3.5L4.78221 3.92633L4.35591 4.35265L5.46434 6.65477L7.68121 7.67793L11.177 11.1738L9.80373 12.5471L10.5034 13.2467C9.03781 14.611 7.25619 16.1928 6.74383 16.3756C6.51734 16.4564 6.20523 16.4813 5.85886 16.5089C4.88248 16.5868 3.63398 16.6863 3.26474 18.121C2.86456 19.6758 3.09673 20.3047 3.26283 20.4247L4.69706 18.6018C4.89694 18.581 5.39636 18.6113 5.79501 18.8993C6.19366 19.1875 6.39403 19.6047 6.44438 19.7773L5.18054 21.6065C5.60549 21.6512 6.61583 21.5585 7.25769 20.832C7.63971 20.3995 7.67863 19.9497 7.71738 19.5017C7.76003 19.0088 7.80246 18.5183 8.30139 18.0557L12.2048 14.4372L18.6258 20.8582C18.8861 21.1185 19.3083 21.1185 19.5686 20.8582L21.714 18.7127C21.9745 18.4523 21.9745 18.0302 21.714 17.7698L15.3982 11.454C16.659 10.306 17.9465 9.20208 18.3695 9.05123C18.5886 8.97305 18.883 8.94218 19.2085 8.90803C20.1676 8.80743 21.3971 8.67848 21.7706 7.22743C22.1708 5.6726 21.9386 5.04378 21.7725 4.92372L20.3383 6.74657C20.1385 6.76743 19.639 6.73715 19.2403 6.44902C18.8416 6.16087 18.6413 5.74373 18.591 5.57117L19.8548 3.74187C19.4298 3.69733 18.4195 3.78992 17.7776 4.51647C17.3956 4.9489 17.3566 5.39878 17.318 5.84675C17.2753 6.3396 17.2328 6.83017 16.734 7.29268C16.3501 7.6485 15.6644 8.31253 14.8883 9.06415L14.8882 9.06427C14.6622 9.28307 14.4286 9.50928 14.1926 9.73747L13.403 8.94782L12.0296 10.3211Z" fill="#6F73EE" />
  </symbol>
  <symbol viewBox="0 0 25 25" fill="none" xmlns="http://www.w3.org/2000/svg" id="equipment">
    <path d="M7.48043 17.7618C5.80972 17.458 4.2529 17.0023 3.68333 16.8125L3.96812 15.0089L2.92392 12.3509C2.70242 12.1611 2.25942 11.6675 2.25942 11.2118C2.25942 10.7561 2.44928 9.43983 2.5442 8.83861L1.5 7.50963C2.67077 6.71856 5.43 4.9276 7.10072 4.09225C9.18913 3.04803 12.2268 2.28861 14.4102 2.76325C16.5935 3.2379 20.2957 4.56688 22.384 10.927C24.0548 16.0151 22.0043 20.7678 20.7703 22.5082C20.169 22.0652 18.2072 20.8755 15.1696 19.6603C11.3725 18.1415 9.56883 18.1415 7.48043 17.7618Z" fill="#6F73EE" />
    <path d="M19.4413 9.1234C20.7323 9.27528 21.8778 9.09177 22.1942 9.02848C22.479 9.72462 22.8587 11.4017 23.0485 12.8256C23.2383 14.2495 23.3333 15.6734 23.3333 16.6227C22.1942 16.2113 19.6692 15.2747 17.9225 14.819C15.7391 14.2495 16.0239 12.6357 16.1189 11.5915C16.1948 10.7561 16.2771 9.21833 16.3087 8.55383C16.815 8.6804 18.1503 8.97152 19.4413 9.1234Z" fill="url(#paint0_linear_717_676)" />
    <defs>
      <linearGradient id="paint0_linear_717_676" x1="15.7391" y1="12.5408" x2="23.808" y2="11.0219" gradientUnits="userSpaceOnUse">
        <stop stop-color="white" />
        <stop offset="1" stop-color="white" stop-opacity="0" />
      </linearGradient>
    </defs>
  </symbol>
  <symbol viewBox="0 0 25 25" fill="none" xmlns="http://www.w3.org/2000/svg" id="certificates">
    <path fill-rule="evenodd" clip-rule="evenodd" d="M21.55 18.0833H3.44999C2.94999 18.0833 2.54999 17.6833 2.54999 17.1833V7.81667C2.54999 7.31667 2.94999 6.91667 3.44999 6.91667H21.55C22.05 6.91667 22.45 7.31667 22.45 7.81667V17.1833C22.45 17.6833 22.05 18.0833 21.55 18.0833Z" fill="#6F73EE" />
    <path fill-rule="evenodd" clip-rule="evenodd" d="M15.5833 14.7667C15.2333 16.7167 14.8667 18.65 14.5167 20.6C14.4667 20.9 14.8333 21.1 15.05 20.8833L16.75 19.1833C16.8667 19.0667 17.0667 19.0667 17.1833 19.1833L18.8 20.8C19.0167 21.0167 19.4 20.8167 19.3167 20.5167C18.9 18.6667 18.5 16.8167 18.0833 14.9833" fill="white" />
    <path d="M15.5833 14.7667C15.2333 16.7167 14.8667 18.65 14.5167 20.6C14.4667 20.9 14.8333 21.1 15.05 20.8833L16.75 19.1833C16.8667 19.0667 17.0667 19.0667 17.1833 19.1833L18.8 20.8C19.0167 21.0167 19.4 20.8167 19.3167 20.5167C18.9 18.6667 18.5 16.8167 18.0833 14.9833" stroke="#6F73EE" stroke-miterlimit="10" />
    <path d="M16.95 16.2833C18.4964 16.2833 19.75 15.0297 19.75 13.4833C19.75 11.9369 18.4964 10.6833 16.95 10.6833C15.4036 10.6833 14.15 11.9369 14.15 13.4833C14.15 15.0297 15.4036 16.2833 16.95 16.2833Z" fill="white" stroke="#6F73EE" stroke-miterlimit="10" />
    <path d="M16.95 15.1333C17.8613 15.1333 18.6 14.3946 18.6 13.4833C18.6 12.5721 17.8613 11.8333 16.95 11.8333C16.0387 11.8333 15.3 12.5721 15.3 13.4833C15.3 14.3946 16.0387 15.1333 16.95 15.1333Z" fill="white" stroke="#6F73EE" stroke-miterlimit="10" />
    <path fill-rule="evenodd" clip-rule="evenodd" d="M17.2666 9.48333H3.94998C3.88331 9.48333 3.83331 9.43333 3.83331 9.36667C3.83331 9.3 3.88331 9.25 3.94998 9.25H17.2666C17.3333 9.25 17.3833 9.3 17.3833 9.36667C17.3833 9.43333 17.3333 9.48333 17.2666 9.48333Z" fill="white" />
    <path fill-rule="evenodd" clip-rule="evenodd" d="M12.7833 11.05H3.94998C3.88331 11.05 3.83331 11 3.83331 10.9333C3.83331 10.8667 3.88331 10.8167 3.94998 10.8167H12.7833C12.85 10.8167 12.9 10.8667 12.9 10.9333C12.9 10.9833 12.85 11.05 12.7833 11.05Z" fill="white" />
    <path fill-rule="evenodd" clip-rule="evenodd" d="M10.5 12.6H3.94998C3.88331 12.6 3.83331 12.55 3.83331 12.4833C3.83331 12.4167 3.88331 12.3667 3.94998 12.3667H10.5C10.5666 12.3667 10.6166 12.4167 10.6166 12.4833C10.6166 12.55 10.5666 12.6 10.5 12.6Z" fill="white" />
    <path fill-rule="evenodd" clip-rule="evenodd" d="M12.7833 14.3667H3.94998C3.88331 14.3667 3.83331 14.3167 3.83331 14.25C3.83331 14.1833 3.88331 14.1333 3.94998 14.1333H12.7833C12.85 14.1333 12.9 14.1833 12.9 14.25C12.9 14.3167 12.85 14.3667 12.7833 14.3667Z" fill="white" />
    <path fill-rule="evenodd" clip-rule="evenodd" d="M8.13331 15.9667H3.94998C3.88331 15.9667 3.83331 15.9167 3.83331 15.85C3.83331 15.7833 3.88331 15.7333 3.94998 15.7333H8.14998C8.21665 15.7333 8.26665 15.7833 8.26665 15.85C8.24998 15.9 8.19998 15.9667 8.13331 15.9667Z" fill="white" />
  </symbol>
          
</svg>

